<mxfile host="app.diagrams.net" modified="2024-01-11T22:35:15.288Z" agent="Mozilla/5.0 (X11; Linux x86_64) AppleWebKit/537.36 (KHTML, like Gecko) Chrome/119.0.0.0 Safari/537.36" etag="TasGQ2JBfG8tawRZGFb1" version="22.1.18" type="device">
  <diagram name="Page-1" id="-ulH3O3-4FexaumD8vs6">
    <mxGraphModel dx="2006" dy="654" grid="1" gridSize="10" guides="1" tooltips="1" connect="1" arrows="1" fold="1" page="1" pageScale="1" pageWidth="827" pageHeight="1169" math="0" shadow="0">
      <root>
        <mxCell id="0" />
        <mxCell id="1" parent="0" />
        <mxCell id="7DDmQKchOeRSoel_VwaO-1" value="&lt;b style=&quot;border-color: var(--border-color);&quot;&gt;&lt;font style=&quot;border-color: var(--border-color);&quot; face=&quot;Courier New&quot;&gt;arg_3&lt;/font&gt;&lt;/b&gt;" style="rounded=0;whiteSpace=wrap;html=1;fillColor=#ffe6cc;strokeColor=#d79b00;" parent="1" vertex="1">
          <mxGeometry x="320" y="440" width="160" height="40" as="geometry" />
        </mxCell>
        <mxCell id="7DDmQKchOeRSoel_VwaO-2" value="&lt;b style=&quot;border-color: var(--border-color);&quot;&gt;&lt;font style=&quot;border-color: var(--border-color);&quot; face=&quot;Courier New&quot;&gt;arg_2&lt;/font&gt;&lt;/b&gt;" style="rounded=0;whiteSpace=wrap;html=1;fillColor=#ffe6cc;strokeColor=#d79b00;" parent="1" vertex="1">
          <mxGeometry x="320" y="400" width="160" height="40" as="geometry" />
        </mxCell>
        <mxCell id="7DDmQKchOeRSoel_VwaO-3" value="&lt;b&gt;&lt;font face=&quot;Courier New&quot;&gt;arg_1&lt;/font&gt;&lt;/b&gt;" style="rounded=0;whiteSpace=wrap;html=1;fillColor=#ffe6cc;strokeColor=#d79b00;" parent="1" vertex="1">
          <mxGeometry x="320" y="360" width="160" height="40" as="geometry" />
        </mxCell>
        <mxCell id="7DDmQKchOeRSoel_VwaO-4" value="Adresse de retour" style="rounded=0;whiteSpace=wrap;html=1;fillColor=#fff2cc;strokeColor=#d6b656;" parent="1" vertex="1">
          <mxGeometry x="320" y="320" width="160" height="40" as="geometry" />
        </mxCell>
        <mxCell id="7DDmQKchOeRSoel_VwaO-5" value="Ancienne valeur de &lt;b&gt;&lt;font color=&quot;#ff0000&quot;&gt;EBP&lt;/font&gt;&lt;/b&gt;" style="rounded=0;whiteSpace=wrap;html=1;fillColor=#f8cecc;strokeColor=#b85450;" parent="1" vertex="1">
          <mxGeometry x="320" y="280" width="160" height="40" as="geometry" />
        </mxCell>
        <mxCell id="xM3Wqnif0lBBMfghwxz4-1" value="" style="shape=image;verticalLabelPosition=bottom;labelBackgroundColor=default;verticalAlign=top;aspect=fixed;imageAspect=0;image=data:image/png,iVBORw0KGgoAAAANSUhEUgAABiMAAAB+CAYAAABGfGIzAAAABHNCSVQICAgIfAhkiAAAIABJREFUeF7snQd8FGXzx397d6mkkEICAQKEHkrovaOoKIqAKOhLVQSxUJQOKiDN8lcUuwIKCopSRBSkSZWaQgm9t1RIIfVu9z97JblcD7kDQmbfz72YLfPM891nn7udeWZGqFmnrgTemAATYAJMgAkwASbABJgAE2ACTIAJMAEmwASYABNgAkyACTABJuAiAgoXyWWxTIAJMAEmwASYABNgAkyACTABJsAEmAATYAJMgAkwASbABJgAE9ASYGcEDwQmwASYABNgAkyACTABJsAEmAATYAJMgAkwASbABJgAE2ACTMClBNgZ4VK8LJwJMAEmwASYABNgAkyACTABJsAEmAATYAJMgAkwASbABJgAE2BnBI8BJsAEmAATYAJMgAkwASbABJgAE2ACTIAJMAEmwASYABNgAkzApQRULpVeBoT7uSnQ26Novqu0PAlr6GNcGdyLznvG5LxMOud3+ohlgBN3kQm4loASVR95FSM6BFHuOQnJu77Bwo1XoHFtoyydCTABJsAEmAATYAJMgAkwASbABJgAE2ACTIAJMAEHCbAzwkFQ1k7zVgno4CFAaXTCDVGDtXko4oxwVwpoT+cZA0+WNFhN5/FWSgkowtB5cF809RPoZufh1IbvseGM6Q0V4N+sHwZ3rFSMAi0iEvb8hBUHUouMoVJK6S6pLSC48aPo2zecnkUNLqavxqfkjOCNCTABJsAEmAATYAJMgAkwASbABJgAE2ACTIAJMIH7gwA7I+6P+8BalEICXq2G4e1xA1CZPFFiyh94fUm+hV6QMyKqN0a83ARuFo5a3qXGsZy/8As5I3hlv2VCvJcJMAEmwASYABNgAkyACTABJsAEmAATYAJMgAkwgdJFgGtGlK77xdreLwQUoXhiaC+EySExkhpnflmKbenGibnuF0VZDybABJgAE2ACTIAJMAEmwASYABNgAkyACTABJsAEmMC9J8CREff+HrAGpZCAW+RzGNyuHChBE6TM3Viy8gTUDvRDHb8Kc34+AtNkTkUvFXHzaCLXEnGAJygpk1/15ujUvjk6tAzQ3g/Q/wc0exrDBoTj7Ol4HDl2DonZHGPiEE4+iQkwASbABJgAE2ACTIAJMAEmwASYABNgAkyACbiIADsjXASWxT7ABAR/dBvcDzWpDggokdKVdYuxIdGxqAjNtf1YvepPZD3AeO5W19yrdsMrk9/E4M7V4K3zQuibVsAvqh/G00feJHUGrh7fh18+mIqvDmbeLfW4HSbABJgAE2ACTIAJMAEmwASYABNgAkyACTABJsAEjAhwmiYeDgUEithzmYtVAsrqfTHsoQBtQWopJxbLfjyMbKtn8wHnExDg22QkFq/8BCO76BwRkiYbyZcTkCFSa2ImEq8k47Za5yASVL6o0rgT2kR46iMnnK8RS2QCTIAJMAEmwASYABNgAkyACTABJsAEmAATYAJMwDYBq5ERCrJMB8v/V7BJyKBMJwajq59KQDM3AZXIIqsgm98NMvzF5EtIsbBA3I/keBaIkpBFBsNMC+fZUrU8rUJ3t6KLPx3zMLo4X5RwUy/fi441cRcQTnqqaF+yhvTMk5BQjParuivQiEgFUh/ySPdz+SJiKSePpXLFtvpg65gP6dmM9KxMegpGPFOLoWeom4LuCRCitZIDSXRPoqmv1w0s6D74FrmlEpKpP7L9Vt4qeSkxgiDtyaUPXXffriEXPBFUuQJ8tONTQl7aDVxPs383VL6hCAvw0BmkpRykXEtEZrGz93ih9aABaOQhty0i5Z8l+P1ysYXoid/BP87su2jEUcrFzesJSHck15Sp2gpvBFcORjnt7bhTrqZCrf8t+HbAxA9eQfPyCnpW1Lj276eYOnsZ9mY8jM93zEM3/Id5T72BDWIgajZpj26PPIE+T7SwLtDCEcEjBJFt2qJ5ZATCAn3gqchHRtJlnD5yALv3n0KK/eFmIlWAV2gkWrdpivo1KiPY3xNKTS6yMlJw7eI5nIyLRtz5VNCjZ2NTwickDEHyZEr3K/UaOV/koaf0R622XdG5WR1UpvEt3k7GxfiD2L79IC7ftinQRlt8iAkwASbABJgAE2ACTIAJMAEmwASYABNgAkyACTiXgFVnhK+HErPIulh4goT1aRqs1gjoVE6B58gYa+wAkNXqT06ATbfpHEqIbzBwy/nbe/gp8Zhc6Fe/7c1Q41vbSfOL9FKhUmCcvwKV9XslScKimxpEy3Y2QcAgfyWaGBnZb1B++OlZEiK9lRjuJcCviDSgL+n5J1mh15FB0ZapzpvaHeyjQHPS3diGT+4XJJJX4utMscQr4gXSvx3xHEg8vUz0fNYiT5OT6E8lGeX7+SrxEN0s01CXp4nVdtJzBfF+ijg9bHSCmpwqk9KpPoGRyDByvDxLXp8+1HY0WUZ35Io4QQZPW5zMNXLxHkmJ6v0/weLhdeFBnhv1hRV4ecB72JVmXUvBpwXGL/sGQ2u7kwFbg2vrx+GZyZuL7XBRhD6OYU9UokoFcvqfM1i55F/c1brVzuy7IhwDP12FV+tSb8RU/DqyO6btKsaDqb/NyohB+Ob31xBJ409MWYWXHnobu1zmn1Eg9PEh6FVJSc+khPyT3+K1cd/iaA4p41t03Em5qTiz7w/t57uPa6KOf6b9cawKRbshb2LS8EfofLkN042cX4nR+G3hHHy4Oh4Z1odcwYWq0HZ4cfJEDO9eE37a1F4WNonmkuux+PuLdzD1tzOU/MvCJpTH4++tw8z29IBqzuHL557Gl3m9MGPBRPSu44sivmPq6eS0eKz5cDrm/Hai2M5fC63zLibABJgAE2ACTIAJMAEmwASYABNgAkyACTABJlAiAqa2axvCBISRIa21jxL/s+CIkC9UkTXsMTr+PNnKCk1uEuSF48Y2uxCSY8UkZ7F9N5IbbHREpOiGazaMgIEkvxat8h9lwREhi5GN973IeN/NyEFi2rAHOSLG+CnQwswRoTszhIz243wVqGJ6YTH/bku8hlpwRMhiLPMs2oBAfRlMzp6HLTgi5DMV5OzoSg6V/tSGHB3i6CYzb+WlwPjyKswhDj3p+vLFuWmONnRH593Goc8m4pNDGeT0IodZ9f54b1oPVLDWPyEAnd56D4NrkSNCjqQ4txyTZm/RRoUUb3NDgwGD0E5boIAihXYuxc8n7iSUoHitFj3biX3XXMDh2FSd41Dhh4aNqmmdLMXbBPg0aIQa2gsl5B45jGPF92cUo0l3NGrekJxQ8iUaHP/zD8TLjgg7myb9LOIv2z5R8GmMF7/6Bd+O7Ym6Fh0RciMUoRXSDANm/YBlUzpR9JjthpVhT+D95V9gTI9a1h0RWrEKeIU1wcOtqjp2DxQhqNaiDxZ88y6ermvqiNDpqfSPRN93FuPrlxvB27aafJQJMAEmwASYABNgAkyACTABJsAEmAATYAJMgAm4nIDVyAhLLdfwVKCWFaO34Xx5pX+nckoczddHLtCBa+Q8kMiIZ7Blh5DhUrZdOmrGDaaTjRXNInkplhTU71NRCqnBlELK08Y5sp6Pk7NiN+WLMjNR0rEnyYAfYcf47k1pkQaSbnbskVa18HFX4jm62Nb1sp6diecxtQaHLRjPW1D0RzsrDhPje9KNolwsXG5Vt4Jr6T9CqJ99Kf3TUxQtcYTSN+3IEXGUHEx3Is9ug46ekHcaSybPQ/MVs9A9SImKj03He/uPY9Svl01WldNK+semYXafKpAXpUtZsfh8wifY58iSdhNdhPLdMKxfDa0caK5i7dK/kWTDKWapK8rKnTBiajc0iaqFSv6UMiovEynXL+BEzH/YsmEj9lyQHSx2Nqf1PR9HDx9F7jNd4SUoUaNRJKXxOo1bxeqTCvUb1y9wDpyJjnNtpIjgDX9/2akkbyJupd6yz8sOTu1hZRX0mb8I49sG6p5HqjtxZvNyLP59Kw6fpvRVGg8EhDdA597D8OJTDRCg9Ea9AfOx4NxzeOnni1YiGYLQc9JkPBqm0uorph3D6q+/xq/b43D2RhpyBS/4BVVCrcgmaN3lETzxUDMEOKKrfI5QDt3emAR3mpPFlMNY+eV3WLPnJG7keKJi/Y54ZuRI9G3gDwU5mZqNfh8T4p7Bu3sy7EeGONo+n8cEmAATYAJMgAkwASbABJgAE2ACTIAJMAEmwASKSaBYzogAMvLLm0ipf45QCp9rZGKrTkb/eibGcIUceUB5zWOzJa2hMJG8Drn0ryENkRcd9yOzWKqDysqRFMYG++tUC8FiGhO9PLn9ivTfcu2IA6RnMukp5/ivTkKM/Qt+pHsdSvMTZ2J8DaCohy4WDPxyv0+QMT6VHAS16doQEkbZo+54IzuidiOxOE/1NuRoj3CSW9VETzn6oRfpH6PnaWhQTl/1BOXKMvWZyGmsjlG/z5G8KuRIaCI7kOgke6omU0qm5bRCuy21VctEB7lNOVKjKd3XpqR4Kt2D3eSU2EU8kotlvL5jXGYXaq6uxfQZzVF34dOoopSjH+ZgaNxwfHuycGm+smo/zKaoCdkBBvEmdi6YjK8dWUpv1hoZ6/sOwUMBMkVyYMUux4+HzNxYZleZ7lDVewKj6hXdW61mfTTr8BgGjBqPkxsW4Z15PyH6pm2XhHP6TnVBqFbBKU1XRNGz7R7ZGPVUa/FfceohkBG/UcMg3djSJCEmxtQZZEqghH9LWUhPz6c7IDskKF1X7RrkqIwuYf0WBSr1noJJnXWOCElzA5vefQkTV50rkoYtOfEKTh/cji1xH2HZjC4UFeGHtqNfR4+/38RfhiI1Rt0TgrqidwdyCMj7NFewctxwvLvX2CGQi6SsW0i6HI+9G3/Gpwsa4KEGWTbntkLxlCbPk+pDJG3B9BfG4bfLha7dhOvnEbtnPy59uxTjmvlAoHvUd+xALN/3FU7bmjhLeGv4cibABJgAE2ACTIAJMAEmwASYABNgAkyACTABJmCLgD37tNm1Ihn4v6faEQtvi1hF9SE+pP9eR3YwU3t0VTJoV9NfnU+RDAlGkpRkGA41+lv2ccgOB8MnqIh1nYpkmzgGrjpQw0CjEfEZ6fYdVctem6XBggwRV016Ixv5ZQdF0U1AC9LdtB6GLO+rW9Rfqr+wmKrGzqD//s8BPUylm/4tEc8VaWq8RzIXUx2LmaTzJgs8qxjxNMiIoH1hJgJlR8Sv6Rr8H92ftdT3RTKDIjU8TDUo/DuPdPmXWM27qaZaEhr8nqNzkJjeW/mKQLppvSjF1NwAJcZSzYsW5PAolmfLuhrFOEIRMtvmYcKS09rCv4JPU7w+bzSaGXLSuNfB0Lnj0ZEKHUOuE7HhXUxZdclBY6+JGt6tMXhgA1CNcbkwAjZ+vxqXnGzYFZR+qNdrEpYun4VH5UFvc3NO3zVXYhCboOuIIrAhGlex164pl/qIqqm7Rso5gsPxjsY72eycjYN5OCJHc2gHpRJV+47B8IZkcLdxhd1Dbo3wwvAOoGxk2nFyacUUGidFHRGFMnJxftVsfLYvSzvnKQK64LlHQy06+pThNVGDnIvyJqb9h80HbUcmaG4ew8Zd5x0fn1IGdnz8HlYbOSIK9Mw5gcXzfsYZmnu1qaXq9cEzURTexBsTYAJMgAkwASbABJgAE2ACTIAJMAEmwASYABO4RwTMTPH29DhMxmrZCG/YZOP3n2T4NjX0K8i5UF9v15QdGMY1HuTUQyFGLUeWo7oE5cmwrf/M9hEKc5yTLa+IXZbak2tQ2Ntis0UcM1pcnkcr+Q+Y2UmpDoIJAVk3uRCvqXFzLxn2DxnJU1OfltO+W/YUsXP8CPHcYsyT5K4mnsbOG1mEMU+dSIr2IEOn6Q08TTr9U6SfEvaR08hYdzsqaQ8nU6TGn3TddHJMzCRHzkaKgJAXf5s6JuSaFA0pUmKUvwrvU579/hQ5UdEUniMN3vE5VEPh04lYeFguTkxOpDpDMG9CR7qvXmgyag5eayobqvV1ImZtRpLtgAMrWtDK+SeGoldFeUBTwezTv2LxDtuG5aKCJGRf3o8138zD+BED0bN7R7Rs0QJN23RBj/4jMWXROsSlqPVsqQ/Vn8LcD4ehHtVesb05oe/qEzgYpzOsQ1kTjRuYVBdQhKHbyxMxdfIkTBnzBGqb+CpUdaPQQFfAAeoThxGbZVvjkh8VcWP9UvxpcKD4tsCYH37Dt1MH4/EW1UDZ1Yq9uTV5HD2r6h0quQex5PsDtgubizewcf0BkK+OJgoPRHVoDT9LY16hKJhHBJUnPIvp57HXEfHmVqzcmGA1TVV+/J/YYAiFUFZCh051HKtHYa9hPs4EmAATYAJMgAkwASbABJgAE2ACTIAJMAEmwATugECxTHeSKKflMTdIa8jQv9+CoV9v39NeUMSBIDsYClqm6AQy0hnb8uSaD1X1nZGjF0KNDsqOjat2DMqyg+QIpZopajiXkEjXmRrTtSvdjTYFOSIqm+wTqd97LPQ7mwz0+x1wjFi7L7KeOyzIzSee+yzwDDcyZlqK6pDl7SadTPHI0Re7zHhY08pkPwG7lCfiF4rcmHBTFxmymxwV2RYu96P79gjVt5hABZ7vapRE3iksnjQP21Ko54IK1frOxNwpMzF/WD2Qb4TqRMTh84l3VidC2023Bnh+UGtQ2Q0SlokdP6yE43WrRSSuHYvuPYdi4v/9iPW7YnH2eirSs7KRlZ6Ei0d34rdFk/HsUy/iyxhDvQhyxkUNx/gnLa+4L4K+xH3PpkiDE7r6LYI7GjSuW+TeKUI6Y8io/2HQ//6HwcNH4PG6xhZ1BcIaNUQF7S4NrsbE4obp4LMwTkq6S0rfgbnjP8fBW6L2eRY8q6DD8xPw0aJRaCUv/ndrhVc//xDvjH4W3eoHwXY8gBI1W7dEqL5b6iNbsD3BXickpJ2IxxXtaRR1ULse9MEhRbomXr1E5+hmHMGnMwYPaqSLvigpAO315GCL/Q8HLT2IBvkaKlAeoy9QLkeRNIhEgCWniVP0YSFMgAkwASbABJgAE2ACTIAJMAEmwASYABNgAkzANoFiOSM0ZHi/YGrN18qXcMFCaqFAciTobF8SrhQ5Tqvn9Q4IORKhhsmKYbnmg2GfkjSsYNQHNaUduW67T1p9Ui3YE8mGbraZAnCntv1MzlKTc+CS2ZXyDgmnLfTb4qkWdspOnLMWdJLlnifWpocCKdrEYEuk0g6oYOo0ITbnLPRbbvoCdd7Mv2FBJ1u75JoZ8VRX4ntK4TSOHBNfUhRGDAktqVxbbTp6THN1DabNWIsrcloaZQi6DeyprWci14nY9T7ViThe/PoOurYFBHQfgn6yx4w2zZW1WPxXktm9saVnTmoSFUC2dQapmXoAC8fOw3YysGs3wQdt+z6OAoeejctL1neKwomN1TsLlajQoAHCjByFfq3aayNwtJuyGtq1rWq0ut4LkY1q6ZwXYgZiD59yPMWQjf7YPyQhI/pLDHvmFXzy90nc0qYiMtqolkNE60cxYPQMfLFqM7Ysm4H+DfW1G8yEe6FWnXB9hJGI7FxfRHbqjK5dbH86RwYXPIuK4BAEW/C+iQnbsOGAPupE4YtWbyzH5rVfY84bL+DxNnVRkYrP3/lG9+38Bdw2nSSKCCQH0aVrBfdEGVbV6N7eect8JRNgAkyACTABJsAEmAATYAJMgAkwASbABJgAE7gTAhZMaNbFZJHRz9pC3HQyVMtpcozt495k1NQuJqfPdbpWQ38ZGpTrQ8jpc+RIhHCz1bp6ZwQZcP3oPOPEMSm0z5oOBZpTg5ZsvzbtdvqLvUgXU3Uoa5LVArmptPLZtN/WCRY9kk3XWstqk2ZBrkE3uR9yQepyJg3RLUC6lcZzSF4u9cz2KnErF1vYTX4UkC8CWdSo2ui+Wjj1Lu2iGgrb52Hi0gb4fmgdaDMHUf7/6xtmYvKvFy2OB4cUU9bAM0O76dJ5STmIXr4cB+/Ur2GnQTFhA75ePQKdh1Yjgz89K/VaoYX/YlxMtTdyS9Z3zZnDiEkXEUHFuVW1GyOSKs1fui0r64Xm7ZtSdImI9FuZ8Cnvi3rtWiPo+wtIlFVS1UZUAy/dM55/HIeOyGXq796We3Unvhi3E99XiET7rp3QtnVX9OzREMHGNn6K9ght9ixm/tgOrWa8hEl/XC7qPFMGoWIFlf6ZV8Cvw2tY1KF4fRAEL3jJD5bpuBCv4deZc9F2yTvoUZHaEJTwr9kefeXPy/LwzEHKpZM4Er0P//69Fn/suQAqSePgJuFWapqdc8lpk5Ze4DgT/P11kRmWJkc7kvgwE2ACTIAJMAEmwASYABNgAkyACTABJsAEmAATKCkB08AAm/LkFfDWzKKycdr0mLFNMJ2cEcaGcqp7rC0SHUypfXz1rV4lIZS1SLtVo9XY8vWh5IwwlnON5Dhsr9PLKs4/ltYqy7Y7074ZZFJWJKvH7LUrR2pYk2vpWBHdKKLETFdyDNhiY+uYPV21x8nAX91dged8lfiAbuA4StDfju6Tp0MX34WTJBHqfHURBpr8fOgz5dyRAt5tB2FgpLvWWC2mbMT3qy/bZHxHjRRclIfjB2OQqR8UgiocEVUcfERL0vfcozh8LF87FgWvSDSurXcZujdCh5a+UIhJ+PurlTilppREjduhta/OXaeo0BCNtHU0iM2FGMTIRUXuwZabdBxbf/kS772zDHHyJJW3C/NeIMfDp2sRl6qrxSF4VMUT736IkXQvi24e8JRzeZVko2dRjuaytKkvrcbYfoPxzvI9uEipzowJCUpPBNeIQtc+I/DOV2uxcfEYdNDlvLIkymQfzZV5eVbnD93JdA6Nf0ObgsoNNN3yxgSYABNgAkyACTABJsAEmAATYAJMgAkwASbABO4JgWJFRsj1FazZsmR7nukx4wW4Iv0hF7EO1J+kIidDBTKTVSTrmM7cKuEYVYSNoOLVtQhFAB0vLx8nW2ehXF26J1eSspRySDZfmvbNoIMtJvb0lLPfFEduEd3I8SBHOtAi9sKNDKI+xMxStIUbHbtTp0EIKdrGQ4HW1Fm5foc1nbPJUbSf0jj9m1vylFD22Jkfp3RKHSdgwfD6kCNItButRK/y1EzMPjQAr/5+pfjREYpKeHLI49oxCEmNUyt/wL8ZrjW4q5OTtSnGqBY46e8DX21FZntL2UvYd+kWYqLPQ9OhHlRU6LhRg2AoYm5AqNMObcg4Lqbtw7bftyL9WSqqHd4M7Zt54I/tOfBo0Bh1tTOIiNTYaG1qsftiowiWxPg9+PPwHqz7bRPe/v5j9I9wo9oS9THoxW74YfzfSC+4jfnIL8jfpsbx70dj0lrrRaEt9k+8jQSDB8nCCZrUGKx47yWs+CAItZu0QPOohmjcuBlatGiIcD99VAbVOglu+SI+/TQLA/73NU5QjRfbGxU69/S0+izqrqVz3HWONPlviZwXllLV2W6HjzIBJsAEmAATYAJMgAkwASbABJgAE2ACTIAJMAHnECiWM8KTDNq+ZOy+aaHtIKN6BobDcnojg81PLqIsF3xtqF/OLxdgDpHrRZAGsu1YTjF0isIMKLMOatE5SnJShNNx/cJrrUj5HF3RWAsKOGlXFrVhGkHgrU0VVTSyw9BcYV2M4ivgRQzKkVxLyVaC6Jip0d+YJ9XUxi1qsrxRs0rSUy6+rU2hY7KFEdPi3Gy5GHULioJoS/mOaujTbZnKlP+W78lZKnC9kxwQB8jSeXcT9RRqpKzUCzNn90U1eem3mIZDm4+hcve2NH4C0ZWKWw8/Nhxfnyyedu4NB2Bwa2/d+MzciSW/nHR5fQzBTWV0n9SQ67TY20redw0uRMeQE6QeQihvWr2oBvBYnoRKbdsgXEnOrQM7cTAzHpm7EzG0eghat28Et+2HUatxpL6ody4VwT5mNZWZPf1deVyT+C/+7+tdeGJuV9JVAd+WbdFY9be2oLt2o5oiyalyxILsFKA0ZnmpOHP6tF33zx3pnJuC0/s2aj8rZAFugYjs+ixeGTMcD1WX013RPNPwfxjWcTkmbNXmybKxCQgMCqArzts4h9JOlffTO3vpWb2VCkNJEhsX8SEmwASYABNgAkyACTABJsAEmAATYAJMgAkwASbgEgIO5oDRtS07CGqbWsjlQ+Q0kFdImx7S1VMw6E3OCDKsGuzkdAnCaMV9db0GcjHnC2TZNhSElo/XpOMVjYSKtPJejq5w5SYXyJaN/Mab3O+app3TniCgjoV+O6qfLblyphzTJlO0dSR0m0j/bcpCLgbeinLXm14n35+WFNVg72aryAHS2kuBN8qr8AEtzX+eQgwirDgiMojTP7c1mHFTjbmU6H7XPXREwL0WBs2dgocqyD0Ukbx5LsaPH48pKy9CTh8m+DTBqwteRyt9eiGH7o8QgIeH9oWubrUGl9cswV9JLh58sjG6clUEG26UmILEZFPXmIn2Tuq7+ng04igySR495SIb0bMXjNbtakMp5SJ61z5kSPk4svM/MmYrEdqmLeq4BaFhw8q6MaU5jUNxmQVj0yG+d+0kciKeOYlreowKn2AEGYcISZk4e+aG3gGpQJW6tVGcYVKibuSn4vimL/DaC29h9TW910nhjybN9UXBbQpXoELNCPibPezGFylRtVqVgsiz/CsXXe7MtakyH2QCTIAJMAEmwASYABNgAkyACTABJsAEmAATKNME7Nmni8CRjd1daKW86UU+bgq0MN1JpsmLJqu6r5IBu9CcS5EPZCCvom8hkazGcoTAefpXdxkZwum4sTNCTgOU7OLbpaE2rpjYnOV+d6JcTaZ2P2+KHGilj/S4E7WsyfWifrc0kyvhknGeJnLcHKfV3abm8WZUNbyeiaLVPBXoZCbPXOMQSsU0nK5vLEemmB+mKAgJ8ZSG6as0Nd66pcEKMl6bOkQsXObiXeXQ9JX5GCPXNiAamqtrMX3meiqYno7dH03FtydzaC+lq6n1P8yf0h3BpjfRinbKiH4Y2tVfO9alnGj8uOywWX1iK5fe+W7BHx27N9cV3yZuhd96AAAgAElEQVQpYvpJHL9qKzTCeX2XMuNw+JRugCmqUC2I6q3RoREN+vxj2LH3pnacZR/egX23JSirtUXbiEaIqqdLMaRJiEWM7Gm8TzfBqxxFNuk2KS8TmYbCNNpdapzYux8pWmcFpTJr0QNdgxwcJE7qr5S6C2t3pOgdIhR95utjNteYN0X1O6KoKLeP+ZGCPcpaaN60vH6+1uBs7LGCeiQ2ruJDTIAJMAEmwASYABNgAkyACTABJsAEmAATYAJMwCUEzFwI9lqpQ8bqXkar9t2VCgwpJ8DP5EI5iiHexD6ZQLZOYztgJBndDTUPzpETQrYHptO/CXpZ1el4kJHca3S9y02eZHA/Su2YGvkbeSvR3SjPkVzz4n/Ub397wOwcb0hyHzbiKUcnPE+MjdMvySLkyJHjJovk4yg1kmkyFxXdj9F+SjxGTqO6FFnSvZwSY73JGG9HD1uHb1HbGygKYspNDT6gKIj9xMduSntbAp12jFLVdJHrRNSFXLNEyj+P5dPmY1uq/u5lxWDRpM9xWM7nT/Ujwnq9jff6VbXoaCmqUjm0GzQA8vjURlpsXII1d5gfTEH3w7GNnqFWIzG6myGtjoibO7fgUI61q53cd/EaomMStM+XoKqHNs93QQuCqjm9C7tv6Afe7QP492A2JGVddB7YFY19ta4aZMUdRryxo8yays7YT3U0GnXrigga045tHmjYpb0+3RsVdD4eg3iTwZtzYA3WX9a7QH06YuTINvBzVDyZ+h2+xVYV9kD58nKaJnmjyKzUW2ap4ixdKvh0wsDeVc2cw4ZzPZv0wuM19G5FzXn8+y/VBbEkiPcxASbABJgAE2ACTIAJMAEmwASYABNgAkyACTCBu0DAUUtpgSryav5e/iq8R2l83iCj9zx/BZpakHKeDOVXTDqQTw4Kg6NBPkT2cq0BTl5xf0ZvzJSdGGf1tk/DcYOYa0UiK1xH55AFI79c4+I5KjY7zVeJEfSZTf1vSf122GZpRV1Zbn+SO5VkvkSfWeWVaEP2Q1O5Z0mnqyYyblOthq0WHCdelFaqn48SE+j+DCSDsq+Vtm3tFumexOWI+OyWGhPSNPiNoiAs1aKwJcPVx5SVn8KsWX2orgHRoqLFx7+Zgo/2ZRRxJOWdWoJJH+zCTXlMKQLRecI8vFTfdilvRVgvDHs8ROu0kNSnsXLJDqOCx8XplQqNX12M5e+9iEcbhRYW1jYT4Ynw7uPw1f89j5pyzQu53byT+PmHXcg0O1e3w/l9pwiB6DhQ4ANxKo9uvbvCX6HBxd27ccFgwZbSsHdnHDkU3dH0qce1tUTkyIL4w0eQbUVP5+/2QOSAj7Du75/w/uin0LKywYhvqSV3VH1kKua8UEPngKK0V5t+/hvXTTNf5cVh8aIt0GbEIqdVtWcX4JOXmiLAwrxW0IrSFzU6DMS0b1bh7c5yiXvzzaPjGCyc8Axa29SRnFDNR2BEF300hJiKQwfPOuY0ELzQYvRMDKtXpIy9VhHBtxlGT+5Pz4b8FzmMDq7Eb6fYFWF+l3gPE2ACTIAJMAEmwASYABNgAkyACTABJsAEmMDdIlCcmsbIImeAmgy/chREKBlNQ61oKVJ15bVkvDa1+RnqHFQzsbTLDohzhpP1jomOpmmRaL9+8bKVVp23O5NSEW30VKKPSd0GuY5FDVotX8OoqVNUK0GubWEprZE9jRLpWhVdG2hBrvG1okbEOnJGmEZryEbGv6iqdaSfArVMvRcmjZ+ntoKoLdMIFlMdU/JF7KW2dlExcUOAgek598Xf7nUwZO4kdA/Src7POPQpJn5lySiuwaVVMzCz9Qp88FgolOWiMHrBG4geuAD7MsyJggztUQNfQGvtynsJGTuX4ucSGHEF9xA0fXosWvR+HVkJJyn64Ajiz15D8q3byFN4I7ByTUS16Yg2tQNBt0e3iZmI+eJtfGu6hN8A3kV9z5EjHPIfQ2sa4+7u9ABqrmH3rlNGhnERSbt34ri6DZrKx+VNcwXRsYlmz7pBVVf96xbcGE+Oboxeo2Yg5WwsDkSfwIXUEFTVzmgR6PnGDPRo3AmdoyrpnEBSHs7/9jbm/aNLOVVULxGJf76H6a3rYmGfanCjouft3liKDT3+we9rtuC/4xdwIy0f7r7lEVSpJhq3aIMOXTogqqIXRSXcxh/aatTmm8KnOroMeQk9Bk3A9dgd2LzzAKKPnsKlxJu4raZoiLDaaN7taTz/dCuEyZ5XGm/ZcT9i6X9Ww2GMGhGRdTsHnn6tMP6Hn9Fo6VL8vuckbuS4o2K9jug3fDAejvDUOXtz4rH4w9VcL8L8FvEeJsAEmAATYAJMgAkwASbABJgAE2ACTIAJMIG7SKB4zggyVK/IV2Akrba3dqEc5fA3pfI5bsnOS/tkh0Jbk4szjFIzyX3Xpmwig6ixgV9eqX/V1LvhMlASNlEfapORv5GN6IdbeRoszhEwnqzIwXegy8UcDXZplHjNDs/1pEu8JZ7UZp5axMJ0YDilzGlsQVf5sgvUzpd5AiYVWLsLlTUWeyObUjHREncrTd1BD110CaXqaf7afLzR3FdrbBVv7sSCqT/itLXcUWIi/pr1Nto0/Az9yVrtHvE85k0/jP6T/kGSyZgSAh/CUDJIa8ceGdrXLN6IZGcAoRX33hUj0f5R+tjAImlSsP/L8RjzzTHL0QYu7LuYHIvDl0W0rql78sRbe7HzaFGo4rU92HlWjaZUL0LexHS65sxdXHEv3cbRf/7AvqqPoEVVH0qR5Ing2q3xGH0Ktwg8NCii4E8pPwF7vp6KiV/utX4vpWRsffdFjMtdiDnP1YevQonAyEfxovyxcb8ceVgEcjqFNX0Ug+SPVVkSci+ux7QJS3DaoZRXGhxd9jGuPz4BT1apjUdHz6aPuXBJfQP/zH4TXxx1xMFhfj3vYQJMgAkwASbABJgAE2ACTIAJMAEmwASYABNgAs4iYCsRicU24qh2wKfZllfNywWmV6Zr8LuFwso6YZS6yUJaoQsFRat1ZyXR33Ixa+NNQ9ddt6iRa3aqKRrhC+qLnAbJ1DYo26Yv5mrwIdUiSKKDd1bEmYo/kw33KPH8gnia9lfulRyJ8hPpsM5UAZMu35YdEpRO6X1yWvxDUQ1xFAVxnD57KM3S11Rsei7l3rlF11iK3jAWLdvlnWF3d80dMUilOiJdJmHBkNq6Qs+aBPw1+22sshM2I93aifmTf8Bp4qOtH9Hzbcx9Ru90KFBYiVr9hqArpR7TrlKPXo4fD5fEiCviyq7fsG7feaTR/bC1Seo0nN6+FNOe742hiw4g1aLjzZV9J+00Z3E4Nk0f5SAhc98umHWfztm567I+WkKi+tbROJprq2fOPpaDY7/MwKDHOqNz3xGY8P63WLlxL45eTNE+L7qNnJm56bh25hA2/jAfo3r3wvBFe5Fkz2eivoZNs5/HkyMWYNXBa8gWrd0zKpSeeQUx/yzDvDFDMW9nkYrYBR3Oi1mB979bhz2nkiDPjZY3knX7MnYvm4EBz03B+mIUApeSNmP6sPFYfCARFMhUdJNE3L64HZ+98jzG/n7xPqnxYpkA72UCTIAJMAEmwASYABNgAkyACTABJsAEmAATKBsEhJp16pqasbQ996c0RQuoQLNxEEMyrbCfQoZt2aYnF1qOpJX2leXV+CQhkYxtx8jgevdyx9+9GxRAKanq00dOp5RHERoXqJ+nCYJFcHeolrueZyU9zxvkkImnj7N4+tH9fN/kfmaRQ2UsOVTs+DrusEel8LJyHTH7j0V4piK5bcQkrH6tFyZvK1qD4k57pfAKRvXatRERXhkVg/3h4+UOhZiPnIxUXL90FsfjjuFiOt+JO+VLMxKavvUHlg8NJ6cb1bpYPAg9348pwdgW4BVSB1FR9RBRuQL8vZRQ59xGRsp1XDhzEvGnr5CDyXFtVb5VULd+LURUq4KQ8j7wUKqRk5aMK+fiERN7ComU1s7uJgTh2a83Y2Z7OUVWPvbNfgRDfkog55EHKtRvhbZNaqKSvwfEzCRcjD+IvTGXkGHPAWO3UT6BCTABJsAEmAATYAJMgAkwASbABJgAE2ACTIAJOIeAtWxLdqWradVwnLwK3+6Zpf+Em+QU2EMfV255xDOGeMYUsxG5jkU5Us1aoWOdOAHNTdJeyfvlleIWF+AXU4cH43QFKj85BE+EastWQ33qFyzZ4RxHhMxHzE7GuTj582DQevB7QY7AxJP47x/6OKGz6owrOLZf/jhBmJmIXCTF78Q6+vDGBJgAE2ACTIAJMAEmwASYABNgAkyACTABJsAE7lcCxU7TdL92pKzqpXRTYlZ5JQZ5CahLdnRT75KCvBWtyynQ140iWIpAkiAX32ZnhB6KR2O88L+WumLHYgb+XfoLTvKq8rL6WHG/mQATYAJMgAkwASbABJgAE2ACTIAJMAEmwASYABNwMgFT27WTxbO4u0HAXSmgs7eSPlTfgqIkkihl1m1qmHYjlP6PdpttGjpnL2cFKuAiKJLw59vDsU1bETsN52OTnZqGy+wG8A4mwASYABNgAkyACTABJsAEmAATYAJMgAkwASbABJhAGSLAzogH7GZTaQtUkv/PxiaRmX3XbRGXbJxT1g5J2Vdx9MDVstZt7i8TYAJMgAkwASbABJgAE2ACTIAJMAEmwASYABNgAkzgrhBgZ8RdwXz/NCJRAe7/yBHxMxXfdW0VjPunz6xJWSCgxvFvhuHRlW6UjkxCfnpiCYpXlwVe3EcmwASYABNgAkyACTABJsAEmAATYAJMgAkwASZwdwmwM+Lu8nZ6axq1iF+zBNRxE1CTIiKCKCjCUlxEFqVlOp4nYXuOiHguFOH0+8AC7z2B3FvXcenWvdeDNWACTIAJMAEmwASYABNgAkyACTABJsAEmAATYAJMwJyAULNOXYsL5FUKXUFkY8N2nijhNBX1tXiBuWzecw8IeNANK0f3zof+9aT2yf+ANLpvt+hfvm/34IZwk0zAaQTcULFhS9QuryCJIm6dPYgj1/OcJp0FMQEmwASYABNgAkyACTABJsAEmAATYAJMgAkwAVcSEKq9slhro1ZtnufKdlg2E2ACTIAJMAEmwASYABNgAkyACTABJsAEmAATYAJMgAkwASZQRgnIS2x5YwJMgAkwASbABJgAE2ACTIAJMAEmwASYABNgAkyACTABJsAEmIDLCLAzwmVoWTATYAJMgAkwASbABJgAE2ACTIAJMAEmwASYABNgAkyACTABJiATYGcEjwMmwASYABNgAkyACTABJsAEmAATYAJMgAkwASbABJgAE2ACTMClBNgZ4VK8LJwJMAEmwASYABNgAkyACTABJsAEmAATYAJMgAkwASbABJgAE2BnBI8BJsAEmAATYAJMgAkwASbABJgAE2ACTIAJMAEmwASYABNgAkzApQTYGeFSvCycCTABJsAEmAATYAJMgAkwASbABJgAE2ACTIAJMAEmwASYABNQPfAIlAGQwttDrBQBePtAUigLu5y0FqrouOIjKMsyi0+Lr2ACTKC0EnALRN02HdG2cS1UCfaFp1IBQdB1Jv/E75i3PAY5xe1bWZZZXFYuO1+Fhs9OwYCG8k8AEVc2foovd6VAcll7LJgJMAEmUEYIuOI7royg424yASbABJgAE2ACTIAJlA0CjjsjlCGQIvtBU6ctpApVIXm4AfkpEJKPQnH6DyiO7oWQfz9BI4tZpYFQ9xwJsbyXZcXOHgaK5YwoyzItI7w/9qoghXaF2KAbpMr1IPkFQXKjoa3OhJB+AcL1/VAcXwfF1cT7Q13WouwRcA9Fi17P4plHO6BZ3XBU8HWD5nYKrp6Ow+7Nq/Hz77txKft+wiLAL2oQ5sx/DQ+Fe0HvfyiiYO62Q/ioWM6Isizzfrq3si4qVG3bG/16eNB/qxF3cSm+JmeExmlqqhDU4CE83fthdGwWiZqVg+HnqYSYm4mUa+cRH7sXW9atxobDCch1Wpss6IElcN/OnwL8m/XD4I6V4HiYsYiEPT9hxYFUh51/gk91tH/8KfTs3ApR9P1RMaAcVJocZKal4Nq54zi0bye2bNyKQ1eyyLVoaXOFnq6Qaa57yftuLtOwR1W1Cwb3bgxf7c3T4PK2pfg9LtPh+2Iu2RXfceat8B4mUCwC9+38adILV+jJMp373lFaeBoNLefP88V6+vjk0k7AFWPeFUxcoSfLLFPzp+AZigZtO6NL+5Zo0qAealYJQvlyHhBz0nEz4SLi4w5j77YNWL/zDNKdZzCAUO2VxdrFkKrN86w/GoE9oe41EWJwOSvnkIhb26Bc/y6UCbetnHOXd/s9CfUL0yB62XhFPPs23Nf86bhiZVmm45Tu7pnudSB2nwV1fYp8MSzZtqhBDoTTX0K1aTmEHF7/axER73QJAc8aT2LG/03F03V8rBisJORc3oz3x07D8uMlMYQ4T31F2NNY9MtMdAu0Pn/mbpuCDqPXIt3BZsuyTAcR3cXTPPHYx3vwscEZ8VFvPPfteac4I4RydfHMtPmY2KsWfBSW3Fj6bko5uLTlU0yYvhTRaTwn38WbX6qaur/nTwXCh/6IDW81AS3PcXBT49gnffDMV2cdeN48UaPnOMyd/CyaBKksOoUNjYopv+LFbu9gt8VFQa7Q0xUyjRE6q++Wb4sQ1BlvL/0Yz0W467nmY9/sRzDkpwQrDh3Lcoz3uuI7zn6rfAYTsE7g/p4/C/V2hZ4s07nvHaWFp/HT4Ip53vrTxkceNAKuGPOuYOQKPVlm2Zk/Bd9I9Bn9Kl58ugNq+CptvmtA0iD91B/4YOo8/HI8owSLdwqfBPuREb49oO77NkQ/Q3ojWneVfRVCGjkdfMIh+XiTNDI4lO8GTV9aQbtiLBSpalc8a8WQ6Qap2TC9I4KMHBm7oNz8Ba2Mv0jRG0a6SZbXkFluqCzLtEzknu9V1oCm1yJoqgcUqqK+CSHpNIQsSh7jUYkiJmpSlIRsUPWEVPsN5Pv5we2XLyDksfHrnt+/MqCAomJPzPl2NnpW0k/uNOfk3LyC89cy4RFSDdUqlIOSnGieVR/G1K+9IQ56BT+du/fzZ9QLL6Oz1hEhQXNjBxbO/ASrD11ESlZ+4RcP9cVxx7gbyq7MMjDQDV10i8DAj7/FtPaBBY43KTcV50+cxMXUXLj5haF2/ZoI8abnQfBE+ENv4ruKfnhx2Kc4nMlzchkaKQ51tXTOnw51zYGTvNBg2CJ8O64VAo2dejTvqnNvI0vjhnJeHlAWHBNsv0A40OL9c4qL+16uEUYtnI9nCxwRzui5K77jnKEXyyirBErL/OkKPVmmc987SgvPIs+6S+b5sjqblL1+u2LMu4KiK/RkmWVr/lSEdcOQ5zsjwqiSgXaskuMhLzsbGndveKooTbe8T1DCr25vvLM4AqEjX8Kn0SVfRGvbGSGE0KpziogwOCLEa1D8OxXKmCMQZDu+QDUY6o6G+uF+kNxJRa82UPcYQMbeH3XHXfHUOSJTUQNitUr6M7Oh2DUTynM3HbnS+jllWaZ1KvfwiAJS44lGjoh8inz4hCJ8VpEjwsiY6xEBsQNFTjSpKw9YIHQQ1K13wm3nkXuoOzddJggoQtF7+lQ8pndESOqr2LTgLcxcEYtkeYgqfFH7sTew4J3nEFlOgCKwHd6a+T/sG7wYZx238jsfpTICHduFQfudJGXh30+m4avtjqcUsahQWZZpEciDuFOBqv2nY3w7vSNCysflfz6gMb0C0UYLFBS+NdFzzHy8+1x9+JAjrlyD4Zg14l/0+SiWUzY9iMPiTvtUCudPdfwqzPn5CPJs9lnEzaOJdlbfCwjsNg2fjTU4IiSoU2Lx27ffYeWmfThx/bbWESx4BKJa/Wbo+PCT6N/F8cU1ztOzsKPOk+navkNVDf3mL8SrTXytRCravHnWD7riO856a3yECdgmUFrmT1foyTKd+95RWngaPxGumudtP3V89EEh4Iox7wo2rtCTZZbd+ZMWO92+cgB/rd2ArXsOIPrEFaTm0NuGwguhkR3w9ItvYOTDNeBF5lSFbyOMnDcWh/rNxu6Mki0mtO2MCHsBmgh//eOTC2HPeKgOny58nCTKyX/ifco+XZ5qMzwMSU6TEzYImppUGPq0o8k7XPB0KsKoboA+vYh4hVbKp5W8kbIss+T0nC9BURNio6Z6ufQQJC+DasMKCKaLynPPQbH1LSgDV0ATLkfxUH2JBk9B3HsECtNzna8lSyzDBDyaDMHITuV1Bg9KSRP72at4c9mpQkOVmIHTf87BCCkAaxY8imBa4erdZBhe6f473tyU5pTQtzvCr6qC8MqF8+exE07QpSzLvKObUAovUtZC737NQX412sh4enoJxk1ahjiTCudixlmsnzMG/jVWY3obb4qQUCGidx+0+jwWO4tdDb0UcmKVHSJQGudPzbX9WL3qT2Q51EMbJ3m3weuTeyFMKT9MErJP/oQxI+dje0JRL7UcdXQhZrP2s3xROXg4+JvGaXoadcFpMl3ZdyEIXaYuwttdQygikciq86FRukGlnbNKuLniO66EKvHlZZdAaZk/XaEny3Tue0dp4VnwtLtyni+7U0qZ6rkrxrwrALpCT5ZZFudPDdJObsD/Lfocy/49j0zTtU1iNhKO/oMvx+7D4TeX4tshdeBBNn9lld545ekl2PvDZTsLrGyPfusJwUEpQxo9Sg4GvYD09VAaOyIK5IoQTn4OxXX9WjChPMTG3e+dIU3Wizw4KAhdp/KYFnPo2gZjdrQsyzSDcR/s8IiEVJDPXgPh+B/mjgiDmtJ1KI8dLFTai64NMI1Fug/6xCo8QAS80a7vE6iqH2aaG2ux8EcjR0RBT0UkbfwE38Xm6eZMRQC693sYFZxhHLlTmm5e8DZYZ8iJQhF6Jd/KssyS0ysVEgT/RoiqYfhJocGxP9bgmDXnguYq1q/ZB0P5HkUAXVuN5+RScaPvipKleP4sMR8FKj4xDL3DdM+DlLkfH1IkkakjwrQZMes2sku2OMlU5D3425V9L4fGIxfig2dqQA7kljQJ2PzeZ9huO4zFcQau+I5zvHU+kwkYESgt86cr9GSZzn3vKC08DcPfxfM8zzNlgIArxrwrsLlCT5ZZFudPzdnvMKz/W/hymwVHhPHQldKx/4uPsT5Z760QPBDVrSNCbXgTHBn51iMjVFEQq5fXyyCHw6k/obBm1JeuQhEfC01YSzqffuVX7gLJew2lyzF+M6Kc/f7B+iLDtD8ngQoJWxNopLpHCCTKi6vbqAhxWpK8UKxwo1Qnkp9BT/1u9yCtGrrNHfCrQpdYeEvLT4Fw28IatrIs0whtkf90p2iT8OZUxDyc0nERc0Ue3b9kijo5DuFyDIRsB5fkGYSqKpC8VhBDagDelO5LoDRLtymK5cYhkncGgr00NZ7+ukgcrTzS5eYNa5rTfrr3ty5DoH+0zjXBl+pJFMPa6+y+G2kqKOgJFkVLo9NGf/jQfU/Aoym6ddR71ymhxpW/12G/NaO+5gr++jMaY5q01nqaPVt0R8eA3/BbqtGcRfn1gypX0BcElpCXdgPX0+zPnyrfUIQFeOimQ3IspFxLRKbxs6XyRcVKAUUfB+9geBvNnwFhVVHNgs9bzErG1eQs8yNlWaaVgakoVwVRrVugUZ3qCAv0hSfNn7fTknH51BEc3H8YZ24Wb/4U6Hsxsk1bNI+MIHk+JC8fGUmXcfrIAezefwop9oeGFU3dUaFhJ3RvUw9VQ8vDS52BG+ePYM/23TiaSI59G5vC1x++hkUAUi4uXbhmo6aIhNuXLyGJfs+Ea22uvvD3LcacbEMPPvQAECgt86crUFMU7iO9WsBT+zhocH7lJ1h50d4PIlcocg9kuqzvKlTrOw+LXomiOYr6RVGJMZ+/gQlrKmHupDvopyu+44qoQb8DgmsjqkkD1KsVjpAAX5RT5uN2eiqunzuBuOhoHLuaaWN+vYM+8SUPDoHSMn86W0/5DrJMffo5J7x3lCae2qfXyfP8gzMjcE+KQ8DZc4ir3t+drWdpet65786d59V5dtLLGj1AmYewlxbQ9nnIk2xLlGI8PAJV6Xf1ddNoimI8c9adEUFNyQmgd3WQJ0S4dKJQrFcraDq2pLRNVBRaG8tBzoorh6lOREsyUtOfqoYQK7pBcc54yREdaLwA+a3q0AlkZLu5CqqfFkBhWBppSWn3ZtA89xk0weRQoJ/dQvxkqP7aWuhnkK8p3xfqwa/q2rUkQ1EXmmd+t/yj/ezbcF/zp/lVZVmmKQ2vBhDbvQZNg2b6QtCmJ8i3JhXC2d+h3LsMiuRMCycY7VJQHZIWY6BpSdEznpZWwtLYyIyFYjel/zp60rqs3Aydc8Fwhj07lpxCzLBJVHzdkQLWzu67UW88I57ClNlj8FTjIGiu7sNPc6fj/7bfsDxOrVPgI/cpAWXN5mgWoJ8/xXQc2hdfEKAlBLTFqHGtceKzhdiaoJs/Ew8ewDlNa9SnGVlwb4yWjdzx279Gxl9Jier9P8Hi4XXJcUApcC6swMsD3sOuNAtOVj0TwacFxi/7BkNru9OzosG19ePwzOTNMH5CleHP4rM1Y9HI2jeBqj5e+v5PvGSBc+62Kegwei1ME/KVZZmmmOQV//1Gj8OoPi1QyVNf/MnkJCk/FfFbf8E3XyzBX6cybDsmVaFoN+RNTBr+COr464uiF5FHjqrEaPy2cA4+XB2P4qRx9Ix4Am/NnYhnGgaapS0Zl3MNu757G1O+3INEK3ZRMSPdKLSTfqIYz7mmYOS/6XjhYopMZHABa0uUyuS+0jJ/uuLmCAFt0KmBm+53rvok1q056vhLgisUuosyXdZ3wQ81m9ZBkOwslfJw/rdJePWrI8hSGWrLFa+TrviO006JgY3w1LNPo0fXzmhbPxTe2jRdFjZaWHDj8B/4+qOFWBGdyr8bLSAqy7tKy/zpdD3pprNMJ753lCKe2ufdyfN8WZ5DynLfnT6HuFvYfhwAACAASURBVOr93dl2hlL0vDv9HpXxvhfvec/FrbQsslXIzgiadlVKuFn5qeqo3EJbQJErSGpQrUIDv0gr1bUVV+WNCgdHvQFNo8HQtGhUeNWtExDyDGEb5SBVqGyiQxY5L6ZDeUU2hZH8gL7QdCeDtNUOULqnzm/rHRFkcEtZCeWWbVoDNG93iUDIc1C/8C0Vf25h3REhq6IMhFRnONQtmthWzL0hNH1+hLpjDyuOCPlyGhA+TSA+8g3yu7W3Pj5y4iHcMljF3CEFVbXRtkDHIwpl5Z6kSAorFjWDFGf33Vg7VSRe/uhd9G8SQiualShXtR1efH82+hvy9NvoCR8qDQQE+NSuiyqG2VVzGkdPGpaqK1HrufEY3WcYJg+Jgpu+O5qLx3Hytn7+VPigTt3KugLSBd29jUOfTcQnhzJk1y9U1fvjvWk9UMHKDA4hAJ3eeg+Da5Ejgr4y8s4tx6TZW2CIrCsNFEu7jt71X8CiVT9i5sBWCLPiiJD7KLgFIvKRl/HO4GYF48FS3wWfxnjxq1/w7dieqGvREaGVBveQZhgw6wcsm9KJ6pBYkmS+TxH6GOZ+OwfPNTJ3RGileoah4yuL8OM73ayOOSntOOIu6edVwR01a4ebjGHjdgWUr1WrQJaYHo+jF+zMyeZq854HkkDZnj/d6jdGfTmPEG2aq/9hb1mJiqD+uqzvUiq2vjcen8VlIHnHXIyavf2+/C5U1euLt0Y/i+4NK1p3RMgDg1ZaVmz+DKYvWYmP+1HaqQdyHuBO3RmB0jJ/ukJPlunc947SwlP/pJSSef7Onmu+6u4QcMWYd8X7uyv0ZJllev509AETvBAYSPUe9eeLCTegXVdbgs3KelhyOJQPKxSbTymVsgyOhooQq0XQMTqnaisy8MbqHAQinSOvbPSUL5Ovl1ccnS+qmuYslH99COn56RC96Zy6k6C5fAKquCsmXaBj9SaSw0Pv0Mg/AuWGRVDkWvBEZGyGas3ZokZrt+bQPPYCyBlJQRsXoNiykCI4LFybZWXlfVmWabgT/k9C3Xec9j5pN/EWpepaBeWJvRBSrlNkAY0HT0qhFdqSaoT0h1glxOQemvwpVIbY8yNoqgXqDlB0gnCGHExHtpO8RJJPr1PlIyE2oALoDerTy5Y3pCazKOhiCFQxl8xli6egiKPUYF2b0TEqSt3wWYgxcy1H2rjVhxglnydvcn2JNdZTjsmnOLvv+pYN/ygqtULbGvqVj/qdgndTdGjqjZ8p9J630k5AgbCqYQWeYin7Oq7dNDgaKqJtu1q08lyJsNZtUEMZjVOyDVadgGuJNEf5y32n68Mr0/+fK7riMe80lkyeh+YrZqF7kBIVH5uO9/Yfx6hfL5usjFQg9LFpmN2niq5IZ1YsPp/wCfZZWCYv3tiIua+ehp+x0dqzFUbNH4Io2VOiOY/fZn6If+R8OiabJvkEKMbIbCvLMg0wlFWexodfT0S3IB1YSXMTx/9eiRUbdiHmzDWk0vepu38oIhq0Ro9+A9G7RagZxyI7lFXQZ/4ijG8bqIsmEDNxZvNyLP59Kw6fTkC6xgMB4Q3QufcwvPhUAwQovVFvwHwsOPccXvr5op2Vs0rUeeYlNHBXIO/Kv/h+0VJsOHQeN/O9EFq/PfqNGIX+UYE0ltxR/el3MWPfUbyxPtE8PZfmJNb8Go0hk1pQmi8V6vR+Hu2Wv4ud6Ra+ez0b4PlnW2hzt1Pydlxe9xv2WKsvYZsMH33gCJSe+dMUvbJyJ4yY2g1Nomqhkj+lx8vLRMr1CzgR8x+2bNiIPRdkZ7KtTYGQmhH6+ZicyKficVpeB6Qsj/oP9UW/R9uhcY1Q+HtIyEq9jnPHD2Dbn+uwMSahWNETJdfTvA8ll+nivmcfxVev9ccf2Zdx+Y7T2On67YrvOGOiUm4yju/ZjG17ohF7/AylQ7yJdErz6BkYhjpNu6LP/55Dt4hyULiF4eGpH2DUiQH45Kizil+Y31veU5oIlJb50xV6skzDClXnvHeUFp5Gz6cT5/nS9NSzrs4i4IoxT7o5/f3dFXqyzDI/fzryGHk3R7soeaGrvGmQcPggSrpmyrozwkdvNJbbykoqjEhQ1KBV5vr0OgF1IZENWZCziYiUqidLtqrJx8gAU47qQ1ja5ELYmygF1JO9KPJCjn54B5rrr0CZZPRDunxvaLrpoyakW1BsfxtKa/mq86nOwHn6GLfl4QuR7B86Ewil87m0C4pbtl8Bi6halmXKIIRKEB8aW+iIyDsO5R/joLyQXPSOUs54IfU41QtZCan2SKoZYo0xOZcavgV1hH5MkeNKsflVqI6YOKsyr1HkzA4qhj4P6oc6kYPJj1JEjYJ4cgoUZpUZaX147Dwoa3wJTXWS698b6j75UG1bTNcb9KThXaELNF3ehCZEXjtGIyJhGVR7YyyNTN0+p/fdvCkpJ5sKTcqj03jU5iHrdvHyxptL5j33BwEFgkKCC73GKUlINiz6VtVEvZq6+VNZvT7qegOUmYfmzxQkptBJtXXzZ7kKwShHw+OWiR1Xc3Utps9ojroLn0YVpRz9MAdD44bj25OF86eyaj/MpqiJEK0z9iZ2LpiMr+MtW3qlrMs4tONyUWy+fuhveJQpRd/ZfTuwzbDi3QHAZVmmFg/lPe87YyK6GhwRmUexeNyr+GBXUlGnAI2La+eOYtcfy/Hdw69hahONlRRNClTqPQWTOuscEZLmBja9+xImrjoH4zIkyYlXcPrgdmyJ+wjLZnShqAg/tB39Onr8/Sb+umnBIVBwLymawt0NmivrMP6FafgnsXAeT0q4iKP/0Q+NL37AhNa+UCgC0f2VQYja9AGizWxfGlxcMRMfdFyMqe2DoKzaFx9+lYe5c7/BhiNJ0K0lUCGgbncMnTgZL9bTRe1kxS/BtM8Pw/IIdWDA8SkPGIHSM3+aglfVewKj6hXdW61mfTTr8BgGjBqPk7So5p15PyHa4Jw2FUC/nStVDtU5HMltkXztOvKD2mLM/y3AiOayQ9DoAloUVL9pezw+8GW89s9CTJjxI2IsOf7M2qDlGyXW01xoyWW6vu+a5Esw+bYz74gDe1zxHSc3K2Wcwd+LxuKXn7bgZJqFSLHkBKozFI0t6zbile+W4PUmtDrNow4GDumMxW/+Y5Yy0YGu8CkPHIHSMn+6Qk+WWbBa1SnvHaWFZ9GH2Fnz/AM3NXCHHCDgijGva9a57++u0JNl8vxp7xGh3+mPD8BD+jTkkvoc1q6NLUhDbu9qa8etJHEgK5ZHucJr8qnIs8GWQYUzQSsotZsyFJKPQQSdY2yccKcix0U8BAZxEtUX+ACqQ2d0O9yjKIphBKUB0h9X1oLm0TcgautVkMH5xBxaPe+M1wdD+/yvXQKVB1IEAxV5ljfpJhRb3zJ3RBQRQoXFT38M1c7/LItWUt2Jlm31tneKTIh9x9wRUXAlFaM+sgDKS/rC4l6dINa1EnWhOQflupdoLFG9Eg0NtkrPQj1wA/Je/Qv5w9ci/5XtyBs0D5pwcoxR3n7h+AdwW7WInGc2DHPO7rsFIlLKVqzammy0QlJC/oW1WLWfzXEWcJXCXUr4+hWGsElZWQVGY8E3BKH6aCNBVRFVtB4D2qQsZGYVjkuhnB8s1/OVkLJtHiYsOa017go+TfH6vNFoRk4N7eZeB0PnjkfH8jR/ynUiNryLKasu2VkZr7+W/3EKAfemgzCira/OGUVO+q1z3sD7po6IIi3l4OI/72PUR3stf6G7NcILwzvoVkvTPb20Ygrd06KOiEJxuTi/ajY+2yfncyS/SEAXPPeowbhpo3tiGv75+H1sNnJEFJydcwo/zPsBp/S+UmX4E+jbShsCab7ln8Xy1wfjzR8PICFPgH/U85j381Yc/G8btmzciO179mH37x/h5TYVoKA2T6ybiyHDP8Z+C1E75sJ5T9kg8GDOn4LSD/V6TcLS5bPwaCX9vG92QxXwL++vd0ZISM+tihFUW2hkC9kRIVG5gwwkXr6ISwnpyJVX3MgbhUxX6/EWvvt6NJoa/Ww3E+3gDsf0dFCY/jTHZN77vhevV84/W31kGWZ9scmyI8K4uexjWPzVRqRo/cYK+LXugMaGdyjnq8USSxWB0jJ/ukJPlmkwuzjnvaO08CxVDygre18TcMWYN3TYme/vrtCTZfL8afvhFAK7YdzINvDRghKRsulLLI8v+UJqK84I+lWrMvIkaIy8DBR1UOBkECiniKHINUgZjdHKeJWtLKZUP2K3XD9CTvJB7VR4Aeou7bQvVVLbd6GpLL9R0YtWygquE2F7XLjgqDvE+g8V3uOU36CMT3CsHdFKZESlRyGW1798qw9DefCQbXkSRU7EH9afQ/pUb2H9/PyLFDkzBqq/f4agjSygIe1RgdKEVaYC7LLBjMZRLqV02vYG3ChNipBjRUdtCy7ouyXNxST8OWUwXv1kFTbt+Bcbls/Hi8Pexz5LOW8sXc/77nMCbvCg/DMFX2r5uQX10hW+/vA1zLpCeQSWN5ylRh4VVTe4IwR3d10KG4s9pfyTn07EwsOZdL4AjzpDMG9CR5RXeKHJqDl4rakP7dXXiZi1GRYyLFmUyjudQcADLXs9gsr66U5z9hd8tv6GndQsunY1GgsrYemQW5PH0bOqTqCUexBLvj9QpAi5mdbiDWxcfwA58mASPBDVoTX8jL7Ozc6nHeKtf7F2+82C8Wd6jubMX1hv+MFB0RFtO0RScjwrW855bJj/CoZN/REHqdaUJCjgTk64KlWroFJ5T61RVcyglE5zRmHI1OWITbM1J1tpg3c/wARK2/wpIfvyfqz5Zh7GjxiInt07omWLFmjapgt69B+JKYvWIS6FngPtHaP5uvpTmPvhMFBgkIXNHV7eKv13h4DQXmMwojF5mrPPYv38EejRvh06PtITD3dtj9YPD8XMdacpylIWo4BPoxGY93pLGPzS5sKdqadBujNlurLv5jRK+56cY7E4qX8HVPiGobK/nUm+tHeY9XeQQGmZP12hJ8t07ntHaeHp4KPBpzEBuwRcMeaNG3XW+7sr9GSZPH/aeEDkdNEzp+OJirI9QoLmxt+YtWATkg2GKxuX2jtkxZ5g8qNWMjIWUK7zws2NUi0ZnWt8nn5tl1UFNGf09SOmUTogyvnfaDrUYjT9W0d3Sf5ROm6lToRVoXygxAQUVLi8iiFFF0UxnKGi4SWyFSkhhTcvdG7c2A4hw55AGtlJVBBd7KAbX8GUDkzxpwU9aOyFPAV1j9EQQwP0XadrNZS8JJccaBSdA6ryTtZaiN2/Q17T7VBung/l5RTLmJzed8vNaPfmXMSWr97GFhun8KFSSoCMrwrBaF4kJ12BmVmhKCzqK7jBzZCgkCZ20diZS4XNrXiKdVDyTmHxJLl+xEyqS6BCtb4zMVd9EBHP1IMnNS1lxeHziZbrRJRSqqVDbWVttGkRpL93GpzbsrnAYHRnHVCiZuuWCDX4co9swXa7laIkpJ2IxxWxM2X9ohRMteuhpnItDlldvECRWccPIdY455OpsprLiKa89HIdJyX9L7R+fSo+fRjXzaZyAb5UhHXizDfwdANDMWz60ZKXhYzMPCi9/eDjSWPbty6enrYMPV7Yii/fnYXv9idz9I4p87L6d6maP0Ukrh2L7j8kUd0W0xuWjYtHk+izE6t//h2vf/YpXm5Cqc7I1eAdNRzjn1yHl1clFHVU0u9rt4JcTEoEV6JaMpprWD1hKKZsSTE6V0T29QNYPuUlpKp+wYc9Q8jJp6TvgRF4cvEhrLhh+mA6WU9tV50s02V9N70vpfBvhTu8fXzg7Ua/Cgw/LTwoGN3wEqjwhZ+8yqEgH2Qp7COr7BwCpWX+dIWeLLNwDDnjvaO08HTOk8NSmAB9v5aS93dX6Mkyef60NgcIPmj22keY3jVYa9+Qcs/gx8kzsdFSNgVrMmzst+KMIKuF8buM0ij+N5fS3dAPYN1vYErPoy74NUxpm4zESVYtH4XqpP9B9SOa6OtHVIDYpIfumFwn4l+qE5EgF6Pg7a4ScKsOqaCaLRWZvnG+hM17QgquopdBg0rtA6lGR6srcAsaKxdU2K43RTrI72BF3q/pjSzsJeT3eRGSh/xokOPkChXE3r0SimtXdeNXjrQJ7QCxzWhoapIOFF6k6VsT0vqXoTpjUv9Cbs3pfS8hOr68dBKguS9fU+gqFtzcCqIcxIx0FPjipBxka5evy5sCbu7KAjsDNPmWU/YYEdFcXYNpVD/il4W9qX5ECLoN7Kk7SnUidr1PdSKOc9qvuz6AvCNQK0zvRpIyceyISRHyYivkhVp1wvXODTJA5voislNn1LUjRwgqrFmiCA5BsPzVbPUrWUTqxUtIKxyyFqRTPYhzcqF02RlBo7VyOKpQN4s6IwT4NHkF33w1Ek1lwxillEo+sBwffbocm6KvIEM21lL0TmhkZ/QfNQYvdamKcjUewrivayJ83FDM2JrkUASJBeV414NEoJTNnzmpSXbrnYipB7Bw7DzUXT0L3eQUevTDvm3fx1F19fdFC7/Rgh6NIf2S9p5KyNz1OT7cauyIMLrZFGW56bNlOPrwWESRY1vwao7HulTALytMnBx0iVP11KvgVJku7HtpezzcghvioV490aVVFBo3qIPwQC+ojBd+mXWIfmNwmiYzKmVyR2mZP12hJ8ssGPJOee8oLTzL5IPOnXYJAVeMeQuKlvj93RV6skyePy2MVVrVjWq938PHwyPhJS921SRh29yx+GBfhn1brkV55jutOyPy8+lsfRy5kpbgyKtxZGNFThIZNeg/5NVbElVeLUh7Q+caB03IdSbsbnL9iA8p53995LesrT9brhMxF8q4S3av5hNcQMA7uDDaRaQC1Zlmy/2K16gQRHVFDMOMXsKrj4K6evFEQKB0S/LYMjamqRpB88gwvSOCvBTn34dq7SqqHWEkW8omZ8o/UK49BOHh76BuVJXkVIP48JsQr02GwihHv/YqZ/e9mN3k0x8UAvnIysqn6dJDO20K7h6GmRRSWgIS5WIPlMYJVBz6pqHgqOCuTe1k2LT5Xm0ah+UzKf/k9nmYuLQBvh9aBx7aOVqD6xtmYvKvF3ml+T0YTsrAYAQZUhySofBaglUPgGPaKYNQsYIhbQvlBu/wGhZ1cOxSw1kCOWW9ZEOVDd9U2q00Oz8qKNoiJVX71S8PU0X5QEoLZqKHZxRemT0CTbR5yETc3DUHz7+6AhfknxKGTcxGwtG/8elrB3Ds3WX4tE84VO410HfmZOyNHY8/U+wOepNG+c8Hj8CDOX+KCRvw9eoR6Dy0Gv2cEaiIdCu08F+Mi6nGYz4POfT9IO/RfhtIt7H7D0q1Z+Ox0FzeiR3n3kBUXfqRRN8jkU3qw52cETYed5tDxjE9bYowO+iYzHvfdzPF7/YOwQ+Nnp+B98c8ihrehb8H7KqhXdFo9yw+oUwQKC3zpyv0ZJnOfe8oLTzLxIPNnbwrBFwx5i0pXtL3d1foyTJ5/jQdqwqEdJuOr97uThka6EemmIGYL17Hm7+et7tg1lSSrb9NzQn6c8khkJ1WeJ1XQGGaHfEShFt6i6+YSHn69cvVKf+5VFA/gt6cctK0ERT2NzpJLGJBpkXuZL1w6Fr70vmMYhJQGicypsiUgsiXYsoxnE45y4vUH7kTMfSiBeO0N7KMGs9CE6B3coinodyxuqgjwrgdKRWKXd9CYShc7d0ZmkhDtIbRic7u+530la95AAiISLuZVrDKWzA23Gou4uxF3XwnqRNwPUk/9ykCEFRg3ZWgTrtVGEFhiwitJlXnq4usKNeQI7nI4lpb1/Mx5xKQa30YJEq5yC1xcJ8HPOW8WyXZaO5U2LRU0XijMWRvk/LzCn58CBQtqTL59eDb8Xn0ra53nKhP4ocPfy3qiDBuQEzBto+/xL+Zui96RUA3/O/JqrZTk9lTkI8/IAQe1PkzD8cPxkA/5CGowhEhhxcV2USkpxmtNqLvi/iTdhb2UAq1sxdl57e8CfCqVBmBpmKLNTIc0bNYAulkR2TeD30vbr+ceb4HIocvwveTHtM7Iii9XcZlHNi0Ct999j5mvTsDU6ZOxWTDZ8bPOGI0bZfwW8KZHWFZ95RAaZk/XaEnyzQkEHDOe0dp4XlPHzhu/IEi4IoxbwVQid7fXaEny+T503isCvBvPRZfLuiLGtoFtLk488sEjP4iDredbKO3EhlBtyOdIiAQptPKs4JuZbpsN5OuQrieCoSGUIHp4xAMta2F/2/vPOCjqrI//ntvJj2BFBJ679KroKA0URHFFcWyuquiuxb+q2JDBFFARXRRse6qa8WylhWliIAFKYKCUkLvhBJIgUAKycx7//OmZTKZl2JmQob83ucTJW/uO+/c773vZt4595wjdQai3W9AEvGQc9Tk6SvZUbS8F7Y+3kknpMZAp0mwH7wZ1k2HKiCDTQJKwOZtPZOIBO9C5n/kRro4ljyWURuUX8bDurmCBbHd99Ol4LnbkeA4Z4XWrIdr66D8evxnqFneDi0/iuathnpEjLTNDVOh1Chp2g349UDJhoHuux81eKo2ENCQfvioOAicKW2UuilIEZ+cw5JrT8P6jZJyo3N9aLtTscVtZ5IIopQktzlBQ+aRdDHflHcoSBj4EGaO7egInXMckne7yaipmL72eoz7Io3REeUhDPTn4n3wrKASkRAdVdUbSLquIvdffRs2/+duTJhbOgVLmXfRcpHutoD6bSh1JcSJUt6hekf4FBXgdIm0eVacc24vT3F2+4GVWL6r7DVZz1qJnzYVYWh/ubdiRce+PVDnnf04HuAvOeX1i5/XNAJn7/ppy8hAljw3dY1IT0nVFBdrfGf2fk40HDti/O1IdjrmNImeK7fAuw2nTuaJMyLSGYkXLbUFqmiZLl/Pys+Z8mXWjL5XvmeBuUJteg0euUvWQGNK6IXY980M3PfEp0jNKbHQFt8sqhBDHr0eXUze4gKjFaWEHoFQWT+DoSdlBva9I1R4ht5TSo1rKoFgzHl/fa3q+3sw9KRMrp/FczW681i88uLN6GS8UEgKr4MLJ+PvTy5DMBIYmOyfksiIrH3F0QlqM+gJ7hxMRVC3Lpb8/WIg3rykOPohsjn0GPcbkBids/b7e/pKnqtzKWwXX+lMCyQpS5QdP4s8sUSIY0MbPA325PINJOXfhC0qRSBPol3c+e5VqdVQp4pjoGdDyfP4GuW9OwtKxq7K/WQe9omUEQtfnfjibuWKc6NcA1YOkOvxnAGxDYujfdySAt33SoFn47OHgPxB37UHp9xBY1KLpE3z4vXzt/nf4IAtF+vmLsIelx1KqdMSrZJdy7GkWtq7u/w0S5aGl2Pq9NFobjgMtRNY++1KHDGeXTURg6W49dj2hgeER3USsGel45g7mkzWz8YNq7h+Sv2PDHG0unc9hxVmYeeOHdhRmZ9dh/wU1/WmIl+Kk+LLiUpQkZCc5PFNa9mZyC5hI4tCw0bxnkyN2rEjZaaWcdxdP4H0Y6c9fbPWb4QUk28k1TmGvNeZJnD2rp9KmFW2QrgPG+yl/HV2HNpzAJ69F+Kks3gKWpuNi6R8knptHv+DJnLNmlbwfPl6VlCQV7PyZdaMvle+Z4G4QkXDwRejhysKzr7rPTww8RNzR4TcUk1MQgLXy0DAP8tkhMr6GQw9KTOw7x2hwvMse4TZnTNIIBhzvnR3qv7+Hgw9KZPrp3OuhrUYjWdf/gd6G7tjxCaV/sOTuP3R+Uir6stF6UfBccb8q+zRTVDdO9rVJlIIOKFYxMGXEPbWaISt83I4pHSC7n5p0tKgpHulefJ3c0sr2C95EFqMoYI4P3Y+B+vXE2FZ79qtHt4V9hF3SU2AKm7x8ndvnjMnYNsDxbMTLxp6I3ctD/NLyv5EimBnHHE1UaEnty67eYU+NXIjezX0LrBe1vWq13RXfWQY1wW87+bKKLEdcNVDL+D9jz/E2zPHYVgzGo7NaYXeJ0VbN2KLxyjdFF06JXqm7Ol1szDm4pH4+wd7PUaj8I5d0EEKkDoO7QA2pR4v278W3gZ/eXoihjkcGBoyljyN+++/HxM/2efIrKbEdse4mf9A3ziun9U6e/J3Y8d+txcqGl26t/cyPv4BTaQI9q6dR1xpuFQ0ad8WgR9SFfEtWpaT2sWCFq2NXPfOw35gLw54fynxNZpK0fbyN+yKEdXqlihzVhXD6x9AxEvOPgJn5/qpILpxU9Rzfw2RVGVHM0rvej+9fTN2up8tNQWN6pezhisxSEySKFbXoR3PxvHSYisxSSqmZyUEStOKyTzzfa9crwLX2oKWnvVVnDIrfsDmclL8RbTtiNaeBVNqRnDxDNxwhLikUFk/g6EnZbp25qmBee8IFZ4h/shS/RpEIBhzvkT3AvT+Hgw9KZPrp6XBcEx7fTKGpkh1O3FEHPl+Om69/7/YVc530qo8wubOiLxfobjzmSMMWtuBXsYxSVTqSOPkPsKhtT6veKf5qV/EAF2W+0SM3P2nw940TgTIwOfMg2XxQul0DtRlj8Ny1OixvIDVux62IYPKNspVpfe8tjQBTZwRB9xjK86DtsOhl29VKi3Hc0aiZPbLXHI83zKmTYaKA6qcl+sypDk/ktw2+V5PRXxrcYSVc5EiDrUEr13K+ZmloykC3ncTndSGuGrmm3jy5ovQt2s3nDfyDsx+ayIuCLyV0UQBng42AT1rDVZuc4c9hKHnsAuR7Jn2NhyXNE7F9dMj0H3wAI8x2J7+M1bsKGv9jEGPu57BvX3ixJsseaUPzsXkqfNw2J6DFbMexZvbCuSsgog2N+GZiUNRr6qPW7BhnU3y7buw6pejLieTpMwadqnsdq1KB23YumoNMh3GRQWRvYdjsCedV1XklrzWek4f9IotY6LI5oG+veq5di/YsX/TZmR7R6NJKr3sbHeUg2R1bN4GLY2i2WUdliZo3SLc46TTsiWFjbfMsq7lZ2c1gbNy/VTqwdrmGwAAIABJREFUYuDQXnDvr9FytmHzwdLrvP3Aaqxxe/osjXHuuc3KdtKFd0CXdu7ICNnBJFF5J6vyHFVQz0pNwArKPON9r1SnAtlY/l5HOdNsGVLzc/PLee+JRp+h/VHX8wYntYqMnL48SEAIhMr6GQw9KTOw7x2hwpMPPgkEikAw5nyxboF7fw+GnpRZu9dPNWkAJr7+NK5sFuZ0RHw3FbeII2JnQaCeLv9yzJ0RepqkY0p1XSVfciWfqVbfJOVEjBiY20sNCcchUQ7bF0Et/Y5VLKvVeKkT4dpxb98LyzezoOa73p6KNsCy8F9Si8L4XepHdJwIe1c/xYZd0vi/QBOQNFybF0kaLpfculfA1qN1xW5iNZkfB+ZBdRc9jzgf9n59KibP0UqmaKl3LHFwHNlRLCNqoDjDvNI2+ZNe/1JoyZ59vXL9Fj8F1oPQdz+6qMmDMOr8BK+wJAWWRpdgVD9GR/jBFZqnpKjotws3utJtiBG57/W4rqP/50NNvgg3XlLfZXCyI23RAvxmWjBCQeIgo05EexgZHfSiPZgz6Rl877bi5v2OVya8inVGjQCpH9Ho8il48uqmZRuzQpNwDdW6COu+WgBXjXJYmlyF+25oW1zUugytwyP8z4+CX77EPJdxUokdiDvu6Ic6pdZEM8EqLOZ/5T0XKbEDMFrmoFnTiK6XY4R7G679EJYv2+6TCqYIWzduhbu8hRo/CH8anFB66fZSM7zj5bisffGafHBTKvxsFDfrGM+fzQRCZP1UK/JwOcZJQZ2+d+DuIXVcz5iG7J+WYq2/L/j2LVj4rTtqTmqxXHUdekWbDbbIPW8khrpT/GnHsebnLfAtRx8MPYMhE0Houxm5mnVeincfP+GJgGvYugVMh1wUt7S8Grdf4qor4phesahTljO5ZnWW2gSbQIisnwiGnpQZ2PeOUOEZ7GeK8msPgWDMeQe9AL+/B0NPyqy166dStw/ue20W/txONsZIRMSxZU/htgc+w+4gRkS4FxUz24N8Lk6FzR9Bdef7t7SF/aK/Q3flNPWsStYW0Ib9H7Qol6jCtVB/32S+aNUZKXUirnDWiUABlDUSCXHgVMn2GXNg/XGVc+e6kgDtwqmwOyrA8qgWAkc+gmVXtutWEsVy/nOwdWppfmt5EdI7PQrbBSZOBruk/Fr1g8v4Lw6mbtNhO1cKSJdlUFPioLcYA/voD2Br5WukM9J6fQPVbfky5sigx6DVM3l9E0Ob/eIbXHNOuiG7l9UtW/z3J9B993eX8DCJNfI9rAgPKy+8w/ca/l5zCcju8bnvY4lRrVQOJbw9bnl8HPrW9Zn0ES0x+rHxGJroXD/13F/x7scbHLWu/R2WxqMwbdpVaGakxNMLsPmNiZi1+mSJXZSF29/BhOeWO3P6S/2ICx+agds7Vml7vj9VeM6EgG3T+3j1uyynYUmJRs9/zMZTV7aCaS1rNQ7trnwCbz3Qz7/TonAD3n5lqdNQLw6m5tfOxIu39yg7X7glDi0H3IBJb3yGKRf6rp9+FJdUL+eNm4TRzUuvTEpcD9w98Xq0cCxPOgq3/g+frfedoRqOLF2ANe5NBTLvLp4wDde1878mW1IuxITpN6GNK7WjXrQT8+alVjnXvZ+e8VRIEgiF9dOKruPexpwnb8MlXeojyvT7TCSaDR2Pfz3/Z7Q26vsYT1HhNnz03nL4fPN1jZQdWz6dg59znRt0LM2uxbRHhqGBn68HlvpDMOGhkXD7IuwH5uPz1b4ejmDoGQyZRvcD3fdQmfx2bF+/Gc7lU0HshbdibLcYv1+RLckDMOGf/0Af7whj+TsTX7f02h0qvaeegSYQCuun83kP/PfkYPSdMgP7LhMMnoF+hiiv9hIIzvwM/Pt7MPSkzJq/1gVhjKI64W8vz8ZtnY3vnbJZavXz+Pv4j7GjGhwRxjqjNL/rbccbj3XJDD/rjiQB6foCioad5zIcS9Pjq2D5bQGU7Fwg7hxo3cZAS6nrulaKWi+/DWGrt/uRJacsbWC/+k3Ym8TKLyIr7UWEffaBFEz201xJhnbZu7A5Ii6kbeZHsH70PFRPZT8/17hPRYyA7Y6p0Iz0QtpGWN4eC0vVkugCtU1m7FDYrn8SWh13jiZxHO2bL9EyKyUF12EoNnmpjkqB3qA3tA6XOedA6n0I/2a5ycAkQRv+Bmxdmrk+l0FP/w6WzeKkSN8HpUCMWxHx0ONaQm/SF1qr/lI82zDf5UGdOwzWnb5bxcOh93sTReefU3y/ooMS1TEX6j5xNOTLC3m46NfoQmhdh0KPcr/JF0H57R6EfbfGRE85HfC++9zK0g53fPQx7u0cUZyiJOdHTBo1Dp+nVynZs3mf+MkZIGBB0zGv4LPHBiLe4WvQkX9gOT7+4Gus2XsKEQ27YOi112NEByn8a9ioJNXNby/eiL/8ext8Z7tD+fB2GPvme3iwd5zMGx0nf30O1499Bzt87cJGW8k1PuLZj/HcpUbEhRiQd72P226YidUVyd8RdzleWzYDQwz/r209Zo68CW/t97dIO7Sq2FHLZKopw/HMh8/i8kau9CniOEr7eS7+O385ft9xEFmnVcTEp6BF53Mx5LIrMEzmwKkv78aAR3/0P/ZKPQyZ+h5mX9UcjtIismsha8tifPHlUvy8eS+OnChCeFw8khq2Rtfe/TBg0AB0axAlu7Bz8fU/BuCBpb4zKhKXvrASLww3BlnDyZxcRMfJ3+Ws3/HfN97DgrV7kG2LRv0O5+HqsTfj4jaxjh3duj0Nn9x5NR5fXtIB5pwEEeh053uYM66zxzCr56dh5VefY8HKVOzPKoAaWx9tegzGVVdfjHMSJR+lcaFehD0f3okxT61CjtP+WrE5xVZnOYGavn5a0ePBrzHnFkmjJM9jXvo2/Pa71AqSgvEZx3NRqEYjsXFrdOs3EP3aJjqfW2PEtFP47aVbccu/UpFvOoLh6Pi3d/DhPd0Q7Xres1MX4qPPlmLd3kycDktEi+6DcfX1I9HV9Rzp9nR8Pf4aPLQ40yfFTzD0DIZMN4xA9r0YcPTwpzB/8gAfh2844hLjXKmzdBSdysYJn3eMwlUzcOXDC3CivLWpqn/jYs/H1Lmv4dqGzu+qeu5uLJnzLr5Ytgn7sgsRFt8YHftejOtuvBzdkqzQj/2Ahbt7Y8S5sbKO2rDphT9hzL9306Fr+kzVtg9q+vrpHo8A6+kQS5kBe+8IKZ5A0Nf52raM1Nr+BngNCdr7e4D1DKnnnX0P1Dofe9mLWD5zmPPdXd5n8k8eR64/25K/9aAoFa/85W58mPbH7ZflOCOMuybKrvOXYevVzp8KXucKoaROgXXRYj/pb4xmMdAvEOOxOz1T/gpY59wH1VMs2Y/4qPNgu2EWtHiHVwHKlgmwLvzORL7X9bXNceCNLpB9T7wMtlEToCWa7un1urO8qZXpjJCmUitBGyxRFt3alx0VUWIqmDkjDHn1oQ15XuSVNzfdAsWhsuUpmaPiTCvPthrovpfoExAmtTPueXQcRnVPge3AKnz43FN4a41rN7VPW/4awgSURAx4+A3MvqkDyiyVop/G3i8n4pbHvsEhf3NToo96jX8fb9/azmE40bKXYcp14/DfElWES3JS4gfiiU9expimYhCXPy6H5t+PMRMW41h5fy+qalTxN1y1UGZ4S4lieWkyRrWK8rvDtSQmHSf+V4YzwmhsbYThEyTK4rqOiCsjprGEXL0Czgg9H99OfQiHrn8WfzXCM/2Nn3FOy8G6V+7Aba+vh2vTdumWlgYY9uirmHlt+7Lnu/tKcdLsmfcE7pj8Ffb6+ktKS+eZ2kagRq+fXgb5Co6Lbs/Emtfvx72v/QJX0Jz5lfIsXTzlDTwzWqKqTB9K5+W6PQurX7wLd7+1EUaGvpJHMPQMhkwvrQPW92KZMSNfwqqZQ1DZGOvCnybjgju+KFkjxxex8XuV/8YpSDj/Ybw7+0a0L3PApU5U9q94+e57ML/Hq5j/YHeJtNWRu+RhDLpnPh26/samtp6r0eun16AESk/vcabMqr93hCDPoK/ztXUtqY39DtQaEuz390DpGYLPO9j3AKzzkj5s9Ov4cZrvZp0KPvQB2LRqie9z5ePG7dTdZjva86HslRoQOZKup77UeYjwjRWXN5+8LVB/moiwFatMHAWyj7f1BNgG9xcjtLxV6UehLhoPy0GJrijrsB2AejRadt53FQXF+lJP0gDl/QA1/URZV4nRpi203oMlLY80M+71+1dQC0q9oZUtw/fT2igzfwfU1O/FcC8RC0lNxYLuO/YGJOFasA/qpjdg+Xmp1PrwZ0l1wdRPQdkj9SMO5QB1WkgUhOzENeZDqUNkFkr0xe75sKyYBcuedP/zSgxtyu4FUI9JhuQEiaiINXOayOfHfoTlh0mwSjFYZzHtUjcteSLQffe5nZazByvnf4K33/oP3v30W6w7WF7BwnL05cc1lEA+9q9YiB8PRaN1p3ZoFOsuNOpWV3ZjZqXiy+cfxPjZy00cBQqSBj+Gfz9yvhS5ludFdsAumDwOL6w95bMD1gdBwX6s2RwjO++7I8mqIq7NuWibsRTzU0+UfV1Ee4y8ZRhaOnzA6Vjx4f/wW7nbQsvBXwtl2o9vw9IvF2N7UQKat26O5GhXJEAJVDpsOXux8otXMf21xdh/qoz1UzuJXcvmYt7vJxDbqCVaNoiV3db+10/7qYPY8ONXeGf2TPxn2RHklRJrRdtLxuKS1jLI2iF8/+8ZePaDtShq0QPdmtf1kSs6Zm7AJ0/eiwlzNps7Iox+yRq/W+67aFsRkpq3RvPkaGfUj+/00G3I3v4d3p3xECa8vgpHS+nnewF/r50Eavb6adcjkdSgARrVj0ekK+WYv3HSbSewc9knmDXxIcyYtwt5Ffk6Ks/Srh/m46f0OLQ+py0alvrbYTxvNmRt/QavTxqPJ77cJYlP/R/B0DMYMj3aB7Dvbpnh7Ubgtotawh3r659U6bP2/d/j7XlbTNl6rgjA37iCAyswb/lRxLfvjLb1Y3zWTh1afjp+X/gmJj8wHZ/vyMOp/Ea45Jo+SJLvBdZEG1I/XYxd1RRWX5oUz9Q8AjV7/SzmFQg9felTZtXeO0KTZ9DXeV8s/P0sJhCINaQ63t8DoafvMFJm7Vk/FUSdMxK3DJEob99pUJHfA2AnqkBkhJcmal1Je9MLenIT6BHylb4wC0rmJihpO8vfaV6RDrFNzSUgec31lM4y9s0k5VGMOBEkfic/Q1I2bRbn0D4j1W8lDzGixYrTqKFENdSpBz1MPEc2SfOVd0RScokTJONgJWXKI1S3o8hrI06ORHFIGfLE+XHygKSB2ihpxcQB8kePgPf9jyrC60KagDUerXr0Ro92zZAcFwZ7bibSdm7AL2u3I4O7wkN6aMtVXmo4ND2nKzq3a4GGibFSfLwQp44fw/4dqVifKimRKj3+8uUhpR26deuAVo2TUVfS0NkKcnEy8zD27tyGLTvSIJmb/sBhQZ2WPdG/V0c0lxo8SkE2DskcXf3LVhytSIrEEncUWU07oXuXdmjRIBGxkSq0glPIPLIfO1PXY+O+E6UK7f4BhXlJbSFQg9dPNaoeWrRti1bNGqNBvbqIjQqHqhWh4GQWDu/fhc0bUrEvx7esdCUGzloHzbv2RLe2zdEgPgpWiSg6nn4AOzauw++7s01rDPneIRh6BkNmCb0D1HdfFjX793Akte2Jvt3bonFCJLSTGThycBd+/3UTDrnr+NXsDlC7mkagBq+fJZ/3IHxPDkbfKTOw7zLB4FnTnkHqE7oEQmV+BkNPyqz5a10wxqgan9bKOSOqUTHeigRIgARIgARIgARIgARIgARIgARIgARIgARIgARIgARI4OwgUNHM02dHb9kLEiABEiABEiABEiABEiABEiABEiABEiABEiABEiABEiCBaidAZ0S1I+cNSYAESIAESIAESIAESIAESIAESIAESIAESIAESIAESKB2EaAzonaNN3tLAiRAAiRAAiRAAiRAAiRAAiRAAiRAAiRAAiRAAiRAAtVOgM6IakfOG5IACZAACZAACZAACZAACZAACZAACZAACZAACZAACZBA7SJAZ0TtGm/2lgRIgARIgARIgARIgARIgARIgARIgARIgARIgARIgASqnQCdEdWOnDckARIgARIgARIgARIgARIgARIgARIgARIgARIgARIggdpFgM6I2jXe7C0JkAAJkAAJkAAJkAAJkAAJkAAJkAAJkAAJkAAJkAAJVDsBOiOqHTlvSAIkQAIkQAIkQAIkQAIkQAIkQAIkQAIkQAIkQAIkQAK1iwCdEbVrvNlbEiABEiABEiABEiABEiABEiABEiABEiABEiABEiABEqh2AnRGVDty3pAESIAESIAESIAESIAESIAESIAESIAESIAESIAESIAEahcBOiNq13iztyRAAiRAAiRAAiRAAiRAAiRAAiRAAiRAAiRAAiRAAiRQ7QTojKh25LwhCZAACZAACZAACZAACZAACZAACZAACZAACZAACZAACdQuAnRG1K7xZm9JgARIgARIgARIgARIgARIgARIgARIgARIgARIgARIoNoJWKv9jtV9Q0sC9GbnQ2vYCoiOha5aijU4NhfW3zZUXqPaLLPytHgFCZAACZAACZAACZAACZAACZAACZAACZAACZAACZBALSdQcWeEJQX6OVfD3q4/9OSm0CPCgKJMKBmboO74GuqmVVCKahJNBWh4A2wj7oAWH+VfsV3rgEo5I2qzTP8Ia8RZJQZ6y5HQOgyE1qA19Ni6gGID8o/K/NwAdbvMzy2/QbHXCG2pRG0kEF4fvS+/FtdcMgA92zdDclwY7LmZOLhjA1Ys+R8++mIF9ufXADDB0JMyAzvuNZmnEonkNl3Qs0d3dO3UER1at0Czpg2QGBcJiy0PJ7PTsWfLBqxduRRfLVyJPSe1GjDpqQIJkAAJkAAJkAAJkAAJkAAJkAAJkEB1EVCa3/W2btzMumSG+T0TR8B2+cPQ6sWYtBERx7+HZd4TsKTnmrSp5tN1roDtxknQosrIRLVrCsK/nF9xxWqzzIpTqt6Wsf1hHzEF9qb1yrivzM/MhbDOmwE1I6+MdvyIBAJPILLlFXjs+Ufxp3ax8L8a6Sg4sATP3jcJczafgmNBPgNHMPSkzMCOe83mGYFhM5fh5ctioYjfvuxDhz07FZ8+OwnPzN2BvDM16ctWkp+SAAmQAAmQAAmQAAmQAAmQAAmQAAkEmED5zoi44bBdNw1aHXd6I9nJmH8QyglxOsQ2k13o0cUq5a+C9eP7oGbJrvQzeoRBH/Qpino1ES3EynFyOSxLXoN6cJ9Eb3jppktf9IpaQWqzzDM6mOY3jzoX9jGzYK8X4WojY2nLhpJ5ALCHA/GtoEe7P5MmeSth/eR+mZ81KoTHvH/8JOQJqA1G4Lk5MzCioQUO+6ysOQXZadhz6BQiUpqjeXIMLC7DrZa1AtP+chc+3F3962cw9KTMwI57zecZiUtfWIkXhnutuY4pb8PpvHzYrFGIjrBC9XZUaCfwy4u34/Y3UlETAoNCfsFhB0iABEiABEiABEiABEiABEiABEighhPwv1HXrbSSAm2oRES4HRHaIajfj0XY639C2JwbEfbvEQib/ymUQpdBP6ofbMOvl7oMZ7jXaktozRu6lMiHunwqLLu3Qzl9GtAkV4/7p8KOCBFVm2We4eH0f/s60C54rNgRoZ+A8svDCHvtEoR9IHP0o5tkng5H2FfvQcl3pQKJ7g/bxTVgfvrvEM+ebQTU+rhy8qO41OWI0G0HsejpGzF00KW4csw1uHTIUIx66CNsznWun2rieXhw6k1o7VXWplqQBENPygzsuIcKT3H+5x9ej8WfvI7pD9yOa0YOQq9u3dCtbz/06tkTPQf9CbdP/xi/ZdmdEUBqXfQeNwPjekRWy1TnTUiABEiABEiABEiABEiABEiABEiABM4sgbLdBo1uhL2V5N93HKehrLwf1nUbobjTPOunoGx9FtbFS6A47Gmy5bHRX2BvXecM96oR9DqurmlpUI6dqLo+ai2WWXV6gZcQPxL2DikuuXYoGychbNl34hjzykGu50LZ8ZI4JD6UehHGBDVqfsicbh0XeH0okQR8CER0vxl3XBDvTM2kF2D9y+PwwAfrkeEOfNBOYsf8p/C3KYuQ4Zi2CqK734q7htZ1RlFUE9Fg6EmZgR330OBZiJVPj0D/YTdg3BMv4f0FK7Fh9zHkemr12JF/bDuWfTgNf715Fn455XTCKWEtMeavQ1C33NRO1fRA8DYkQAIkQAIkQAIkQAIkQAIkQAIkQAJBI1CGMyIaWpdLoLsNBDnzYFm3w48iGpRtr0I9XOj8TImH1nXoGct77lBClYLVnlwQEg0RiKw8tVmmn1E/s6dU6K0GQbe6JqdtPdTVq01UEoNX2n9g2ZHjmp8J0DpfeGbnp4mmPH02EYjGeaNHoqkrysF+ZC5mv78drlXSq6Maji16EW+tL3TtFE/A0KsvQnK1GWaDoSdlBnbcQ4WnhhPp6civQObD0zs/wqvzjsLpp1AQ26svOlvPpueffSEBEiABEiABEiABEiABEiABEiABEvBHwNwZYe0GrUW86xpxOGyfD9XMqK8fhLplvautWNEai6E42teaFgm9bhPo8U3lR/4fGeZPn9LnIlJc1xjXJTs2t5c41Divz402xk+SVzupHVDHfV/3567/x3jVu/AWWptllh4B55lwiQxpczns/e6GffAE2IaOh/38v0Br1xt61B+wIlmTxaFwmcgbB/sQQ9798u9rZc61gV5umhqp39GgbbGmmaugnvSKiCjVhxyoO9a4zsoEajIQesm05qWuKHEi0H33Eq6oaqkpXbYy/DQkCET0wJCBrt3xYnJN++YrrDFLim9Pw8L5v8GZ7U5BZO+hGJjgs9ApkUhq0hTNmzWTn6ZoWLdi66c1rj6aOa6Rn6YpiPV9tgKtpzE4lOkqVB6AcQ8lnpV6MAuxffNOlzNC9g7EpaB+qe8MlRLIxiRAAiRAAiRAAiRAAiRAAiRAAiRAAiFAwNyKnNRDjMwuX4WeA2X/1uLuRPWFfWAfSdskRaFPGUZgcVakrZP0TX2c9SKsnaE1CIO623sfsMjqOhNFfdtJe9k6mf0ZrB/OhFpQxjbK8J6wX/ey1AUQh4KYLZQtj8C6UFLxeIONHw3bX8eZ16lQ28N+zRceo0eJMdk1BeFfzi89TLVZpi+NqE7Qzvs/2Dv1hB5m4ruyZ0HZ9QUsqz6AmnHKV0LJ31WpQ9L7Xtj7SPRMpK9l1Ggq8+GURDqskPRfm7b5l6UkQo9z5xiX9selMHkZ08ghJGuXzM+LnPMkrBP0ZJn6aeUUCg503716E9lqFCZOvxejuibBfnA1Pnx6Mp7/4Yj/eeqfAs/WYAKW1r3QM8GdKi4Ha1dv8QRoKQn9cef4c7H15dn4Lt25fh799Rfstp+LjjItlfCu6NMlHJ//KFFd7kM8dC3GvIi3x7ZHhEx2296P8ffrn8TyE+YTX4ntjfs/eAO3tA2X58OOQ/PG45pHlsD7CQ24nqIvZQZw3EOIZ2UfR4uleP3XtSKcdteeqqwgticBEiABEiABEiABEiABEiABEiABEggZAibWZTH3J8kOdfen2k4onkTnkiKn2z2wd/kr7L27FHf0+NbifP1KjBh7G/tAyBPnxWRY0gxTmMhPGA37UDFI+0Y6eK6SdE8XTnE5IsTglvkJLEu/L9/oHDLoQ0DRlOtgu/FN2LpL9IOZI8LohkWcA+3Gwta7e9mdCu8M+1XvwzZwuIkjwrhcJkRsd2gXv4GiIeebzA9JwxXmnji6zDuzLede6pw+6fBzOA7DmZHkjvrxauP9z0D33Vu29Rz8fdYTGNM9BZGqBTFNz8Ntz07HmMYmj6OJijxdUwlI2pm27dHEPZz2Hdi0zR1WZkGb6+7H3Vfdikdu7gZ3fIN932Zsy3VF96ixaNe+MUq66nKx9uWH8eLak4brF9YWY/DkpOFINpsySgIuePBJ/LWNOCJk4hfunoMJ05e6alO4uQVDT8oM7LiHCs9KPotKHHr06QD3bght3zbsLJ3DrJJC2ZwESIAESIAESIAESIAESIAESIAESKCmEzCJjBCHQ3yjYt2L0qHkuQxlSgNozVvJZ9KmaV8xFq93Ogg0aWMUpHRsWDeubyj/31Oy//ZdsCz8J/Q/T4YWLW3aT4D9wFZYN6T5cJLPOjwsDg+XQ6NoIywLXoF62s8u4JNLYP1yV0mjdVgv2C+90ZnuR9sLdelsieDwc22eyc772izTPRJ1r4Bt9HjHODkO7bik6voMlq2roGQeBoxC0ZGSQqt+H6kRMgZaE3cxaZ+hdP+qNIY2YhbszROdZ4zi0jvFwbTxB5F3VORL9Ev8OdA6SQH0Th3FYRANvfs02LNuhvX3/T5CJaLBM5xiarVUIGWNVfIyeRxfFkkZVl9kZvhXNtB997mL2rAv+rcMKxHho0T3wIAe0fjoYDmRJf415tkaRUBFo6aNPP4yPf8wDmW7HQ0N0P+8NrAqFjQ6tx9aWn7DdiNxvi0dh47KpK5rdESub9ZY/ru7ZKRM4Q6888gM9Pp4GoYmWdDg0sl4cs1m3PnpAZ+IGhX1L52E6Vc1gUXmvJ63Hq8+9CJWn/RdA4OhJ2W6/aSBGfdQ4VmZB1Dm7pAHMH54XU9x99/nLsBOT6HryshiWxIgARIgARIgARIgARIgARIgARIggVAiYO6MiHUZjY3e5B0rjkhQW8quctee3YT20MWGrBjZRDRJ1ZNnWBOMz8SAHVPPPwejEPa3kgLqissl8sKIfngc9sN3wXLMa1tk/JVSR8AVNaEfh/rDFFiOeqUs8ZZclAZlj/x4n4uIgyZ2N6fp7aSkmFoO9XhZNQV8VK3NMg0USkNow+4rdkQUbobl6/Gw7PUx3udlQMnaLPVCPoHe9g7YG5kxFucH5fzXAAAYD0lEQVRS5wdha+WaU+K4UpeMg3Wjj7Pq1CGJnFkmxdBnwDbsAnEw1ZEUUXdC2zYRqndVVP0ElHz3vWTkZa4ZY20aZGP0KVacY54Gok90gs+gu34NeN9L30YvyJcir74aFyIvt5y0UaVF8UyNJKAiKaWeZ7ppmceQ4Ta0WlujQ2vn+mlp0RHtpWzNdgnagZaJo5nSqK1z/YxJrocYma/HffwH9oNzMfmxXmg/+09oYjGiH57CLRvG4s1txeunpenVmC5REymGKC0bP818BP/eUuCHVDD0pEz3MhOYcQ8Vnn6ml8Q9RMVFuaJ/LAiPSUDDNl0x8LLrcdPIzkh0eMrsyFw5C1M+3MsUdf4Q8hwJkAAJkAAJkAAJkAAJkAAJkAAJnGUETJJ8iBUrIqa4q0V5xTvRpaA0wl2XWepDj3WLkDbeaRbCpbC0X+uwpNXZ9Rysa3c65Yd3kyiGv0kaINftLG1gv+QeaI56FZKQZOtTsnv+wFmGvYZ3p/ENEsEQ51RSz4b63YOlHRElulAAZccLsP70s/+OWaTuRJ/+LmeA1P5Y/3hpR4TnykIoG2fCsl/mk3FEXQCtvW/UxSlJG3ak+F7JXYrnj18NJBKiqTjAPPNR/hHuNb+9rwl03/3oo2d+h8++y5DZ7T50FO2di8/W+DMY+xHAUzWcgAVxdaI9zgg9Lw/uRGKKo1Cvc81UrA3QxOExkEPPw6m8Ys+DElMHcSbrZ+b3M/DQOztgBIopsT3wjxl3o6c4NRxHeDvc8vT9GBgv9zDqRCx4AhM/229i6A2GnpTpHrbAjHuo8HTNP+//xV2KWct+xi+rjZ8VWPHdPHz276dwz6gu4oiQv+65e/Hd6/fg2nFzsIMpmvwA5CkSIAESIAESIAESIAESIAESIAESOPsImDgjxDNg9bKE2b0sBRJ14DHqKpJTxF3kGrKr2+61M95qFJ02O6R+xAqjfkSuNJD7JN8I26Dz5J9R0Ps/AXtjw1AslrbMj1knwgxh0M6HQ+s4rHiMMz+HZUt6xe6mmURGNLwEWrzL6GpbB8uva8uWp0vkxJZ1rjaiT4vePu3FobF3TXG0juGwaJNkLjOyv6R+alXyc7+pnYLQd39aaccwf+JfMe7Fz/Dtsh+xYM4zuO3WZ7HaeBx4nAUEwhARrhQ7I4pOw12bV42rizj3qqvEIzHevc7aUCiN3O4IJTwcIsLkkPoRLz2M2etOSXsFEe1uxoyHBiJejUL3O5/C//WIlbOuOhHTluCYyWMphVeCoCdlepwRARn3UOFpMlX9ntZhz1iHdx+/Fw+/8j0OmAQ9+r2UJ0mABEiABEiABEiABEiABEiABEiABEKagEmaJh8rmO5lzZJc58VHmKRa8mrr3c6ZDdocjn2nq37EJEkHZIXeZTJs2m/y/3bOa4o2yecmdSLMpfKTqhJQpXB5E3eKLjH675Si4abGzIrcTKISmvUqdm4c+QHKyfIEikn2mBRE1wY451c9SQemzi+pR9r/oGaMgj1ZHGfiFNMunAz7sUdgyfApZh3WCtrwidDqyDw1UiMpHlNhaeUD3vfSt/CcKdiHpf+agqVlNOFHIUpAUaF65pn0QZx0nnT4qlpcmFoJQ5hXIXbN25krhc1NPMVOKIXb8fYEo37EVAxJsqL56Kl42vYrWl3TAZHGVM/bgFcf9lcnwotpMPSkzGLAgRj3UOHp71G1ZWPPpg1Yb0Q9yveGSEn92LBxA8SJl81Srxdumfk5/nTz/zDz0Zn4YntucRkgf7J4jgRIgARIgARIgARIgARIgARIgARI4KwgYOKMkCgHb3ux9y7y0zmOHenOHbySnsfm3ssrpjOLlzi9Avnvc76W+hHdXfUjkqF1H+6EatSJ+FHqRKRzy2S1z7KwFtDruM2gUmT6yJ4qqhAJvV4TlwyZVLZY6C0Hlm94ivGKdIhOFmeE2LO856S2HZYfPoN21XVSwFqsrzEDYL9BaldsFafFof1Q7OHQE7tB7zgcWl2pqm7bDnVvmERQtBRdZM7ai0r3K+B9L30LnqkFBGTtK7K710WZt2FhnigH7WQOPL44vQD5BcXrZ1i4pbisicxPPzO0BDz7wS8xSepH/Hf2lVI/IgVDbhjh/FzqRCx/VupEbC4n7Vcw9KRMzxgFZNxDhae/xzp/OWbetLzEJ4qkeew89Frcdc/NGNw0EvGdpL7JO82QMPZOvOm3rok/wTxHAiRAAiRAAiRAAiRAAiRAAiRAAiQQqgTMnRFFhinMlWrJEuHIpuSwIBccE8Ou/MNRfFIqrxa4LcTS1jtowqgzUe5h1I/4p9SP6IiiPm1drY06EU/DsmF/uVezQRAIREsxaHe0iyYFqk959nT/sZspSVJXxD3NxKPQ4k7YWlRSlCLOBGNulfBvyRzc/xKsS5Kl2LUUOzfmY1gjaF1uB7r4yNePQf1enFsJM10+Nrm24FRpJQLd99J34JlaQaAIeXlFslxGOJZNJTzCvZJCP5GOo0axByMHk56D7ByXM0IJd6RMch+OegPF/gwTajoyf5iBh9/thP/c0g4RjjXajsMLpuKRT/eZ1InwFhUMPSkzsOMeKjxNpqjPaf30UWxc8BLuWr4K4998Hbd3joIa3wf3PHU7Vo15CanleeAqdhu2IgESIAESIAESIAESIAESIAESIAESqKEETDKBiEMg/0SxylEJxWl2NNl1ftxloNaOQsl1OSMk/7nuqR9hGHtPFOf0L7Pz0lbzNnjL78au9XINcWUK5Yd/lIDFu9aHRKZ4Il/+oEBFHFne9Uf+iBhJVVKcXslbgBS73jQRYZ88AzXtsMwZ30kjczP7J1i+HAvrhn3QY+JdF4sTLC+rtCaB7nvpO/BMrSCg4UT2CU9wmRKfKPUcXB2378Oufc71Trel4/Ax19qnJiDJ00iH7cTx4giKsphJajxbka1EIJtdHMma76PgV0Yw9KRMt3s+MOMeKjz9TjDTk3rOr3hp2ofY5Zj+CsLbXoM/9xenMw8SIAESIAESIAESIAESIAESIAESIIGzmoBJZISYU3IkAgKNnJ2PTHbuTDcMB/pBKIfFkFs/RQpMb4birm2tSJ2BaLfFTYy9OUcrAE628ra8F7Y+7b3aSo2BTpNgP3gzrJsOVUAGmwSUgM07NZYYh6rqSNDFseSxjNqg/DIe1s0VLIjt7pguBc+N3eR+D5mrhz+D9ZMvgFipd5HSXJxiorc9B8jaAvWoax4qzaDHR7kkSC2M4+K88D0C3Xdf+fy9lhDQkH74qDgIGjsCepS6KUgRn5wj75I9Des3ZkLrXB/a7lRscQeQSQRRSpI7MkJD5pF0uJdWc2gKEgY+hJljOyLKfank5m8yaiqmr70e475IKyc6Ihh6UmZgxz1UeJrPUrNPCjcvwQ9pN6NNc3lK1Hj06NkalmWp5cxZM2k8TwIkQAIkQAIkQAIkQAIkQAIkQAIkEAoEzCMjsvYVRyeoYshNcOdgKoK6dbHk7xcDsRgTjPoRjiNSjMAxbouYGJ2zKpBmqc6lsF18pTMtkKQsUXb8LPJEoDg2tMHTpDix9y79UMB5FuiYJ9Eu7nz3qtRqqFPFMdCzJQrBs1dYjLFZUDJ2Ve4n04h6KI+t3OPUdii7F0NN/Vrm6I/Fjgjj0ohzoCe55rB2SO7vJ01ToPtensr8/CwlIAbkXXtwyh00JrVIHAZXx1GE3+Z/gwO2XKybuwh7XIERSp2WaJXsWo4l1dLe3eWnWbI0vBxTp49Gc8NhqJ3A2m9X4ojx7KqJGCzFrce2NzwgZR3B0JMyAzvuocKzrHlm8pl+FEeOuv82qEhumFIi06PJVTxNAiRAAiRAAiRAAiRAAiRAAiRAAiQQwgRMnBHSo6OboLp3tKtNoNdPKO7mwZcQ9tZohK3zcjikdHLm7TdaaWlQ0r3SPPkDZGkF+yUPQosxVJC0UDufg/XribCsP+BsHd4V9hF3QXckQudRbQRse6CccBuIoqE3ctfy+KMaSBHsjCOui1Xoya3/qKAqXCdzqMVgaO6c/AXrRSfv1GAu0QHvu7nKSmwHXPXQC3j/4w/x9sxxGNasPMOxuSx+UvMIFG3diC3uFGdqU3TplOgpTn163SyMuXgk/v7BXs8u8PCOXdAhzLXWaQewKfV42f638Db4y9MTMczhwNCQseRp3H///Zj4yT5HZjUltjvGzfwH+saVvX4GQ0/KdHlOAzTuocKz0k+hEoOY6OL5qRrp+HiQAAmQAAmQAAmQAAmQAAmQAAmQAAmc1QTM3/7zfoXizmeOMGhtB3oZx6SSsCONk/sIh9b6vOK6Eqd+8W/s9bQXI3f/6bA3jZMzYrjJmQfL4oUSFZEDddnjsBw1UgWJkaLe9bANGVS2Uc5LC/4zAAQ0cUYccI+tOA/aDoduksyrYneTKJn9Mpcc9jkZ0yZDxQFVtoG0YnIr0UptDnuPAa4LxPG15weoJYphuz8KdN9NdFQb4qqZb+LJmy9C367dcN7IOzD7rYm4oBzDsYk0nq6BBPSsNVi5zR32EIaewy5Esmfa23Bc0jjleaJ9ItB98AAkulZje/rPWLHDj7PM088Y9LjrGdzbJw7yhEpKu7mYPHUeDktqshWzHsWb2wrkrIKINjfhmYlDUa+Mxy0YelJmYMc9VHhW9jFUErqjVyt3xJCGo5KarKxZX1n5bE8CJEACJEACJEACJEACJEACJEACJFDzCJg7I/Q0SXWT6tJYrFlNr4FW3yRlT4wYmNtLDQnHIcbe7YugmloVRFar8VInwrXj3r4Xlm9mQc13WeaKNsCy8F9Si8L4XepHdJwIe9cmNY/cWauRpOHavEjScLk6WPcK2HpUMJrBajI/DsyD6i56HnE+7P36VIKeTNEyjKnlC4qA3vMR2Bu6Ig+0fVDXrza5LAh993MnNXkQRp2fIIZk96HA0ugSjOrH6Ag/uELzlP0Avl24Ec5SJwoi+16P6zr6fz7U5Itw4yX1XSlq7EhbtAC/mRaMUJA4yKgT0R6R8lzoRXswZ9Iz+D7LtX7m/Y5XJryKdaeM8AgLGl0+BU9e3dQ8/U0w9KTMwI57iPAMi6tTXLukvKdWiUOf22/GecYkNg7tONb9upPOiPK48XMSIAESIAESIAESIAESIAESIAESCHEC5s4Iw6mw+SOo7nz/lrawX/R36G7jgbvj1hbQhv0ftCiXqMK1UH/fZI6lzkipE3GFs04ECqCskUiIAz75+zPmwPrjKmedACUB2oVTYXdUgOVRLQSOfATLrmzXrSSK5fznYOvU0vzWSqwUHX8UtgtMnAx2Sfm16gdXdIQ4mLpNh+3cbmU7GcRYpbcYA/voD2Br5d+IC7U1tB5DpGC1e3etj4qWBtD6Pw/bwJ6ue8mc3vYa1MOmll4g0H33Ry08TGKNfA8rwsNM+uHblL+HAAE79s99H0uynF49Jbw9bnl8HPrW9fGsRbTE6MfGY6grLELP/RXvfrzBUeva32FpPArTpl2FZhbDE1GAzW9MxKzVJ0tEjxVufwcTnluObOPWUj/iwodm4PaOUtTd7xEMPSkzsOMeCjxVpFz5Ir79dCbGXd4LTRzpF/0fitSXGv7A63jpz61glDsx/tDb9n6JT1cX+L+AZ0mABEiABEiABEiABEiABEiABEiABM4aApb4Plc+bvRG3b28dKdseyVCoTO0Vk3FmCtWg9hu0Np1ln/LrtvIhtCbXQr7MIlcaJrkulaKWq+aCOuujNKyjDOWNrCPmgEtyXAsiIy0VxC2eGlxEWzPVZJk5Kik9kkaDq1ejFyXAr1JFJQtUuDaNOLC65bWttB6DxaHh3Gbo+Ic+QpqgScnin/dyjtbq2TKOB48BL2dMIwQiGpd6G2ugNa4vvxbDOaqjF9kPSBJikK3Hw37kMdg79YdetYiWHbu90NSxjPjNyhxF0p0TV2ZP1Eyd0bC3koiLqySA0oV03y4nE9oJTUqzofW/WbYh06Q1EqSoitexn3be1Cz/Ay82l7m0z9hP/dqaE07SoFqKaJer63I6Au9859FhtQkad3MOXeN+Zb1BazzPvCfosmjdaD7XhqHnpuP5EF/Qr8UqyfoQzu5Av+Z9RW25FZxnpa+Hc+cKQIFe7E5twuuuKC5RDEoCEvpgUsv7op4WT/D6zZCh36X444pU/C3PvVg+Bag5+H3V+/Hk99n+N8hHt4Ot87+J25sEynzRsfJtS/gjse+Rbo7isnTTx0ntqzBoVaX4qK2sVDD66NX7yism7cSB/354QKtp6EHZQZu3EOCp4I63a7C7VddiP4XXYmb/nI1Lu7XE106tEW79h3QQWqi9O4/CCOv/RsefuwB3NCvkSeKQj+9E+89NAmf7/M3Oc/Uw8v7kgAJkAAJkAAJkAAJkAAJkAAJkAAJBIOA0vyutx3WT+uSGSbyE6ENehm2Xu1MPnefLoSSOgXWRYv9OBeMNjHQL3gTRe70TPkrYJ1zH1RPsWQ/4qPOg+2GWdDijaIFsqt9ywRYF35nIt/r+ogRsN0xFZrjso2wvD0WluOlLHZ+bljGqdooM/Ey2EZNgJYYVQYY90cyjVLvQ/g3fpxa7iZSK0EbLFEW3dqXHRVR4m55UOcOg3WnH0OVpR9sf5sNLdp8F65TlIz90c9hnfsc1Bw/Tg1/vQt0333uESa1M+55dBxGdU+B7cAqfPjcU3hrTZbMch5nFQElEQMefgOzb+qAMkul6Kex98uJuOWxb3DI3xSV6KNe49/H27e2Q4Q4LrTsZZhy3Tj894C/xk6CSvxAPPHJyxjTVJxeuh2H5t+PMRMW45i/SRYoPb0HjzKrPu4hw1NF45vewaJHevmJ+jJ/orWTqZgz4R94+vsj/h1w5pfyExIgARIgARIgARIgARIgARIgARIggRAkUHZkhKND+VD2Sg2IHEnXU1/qPET4ppIRI3TeFqg/TUTYilUmjgLZx9t6AmyD+zt3qRvRCovGw3Iwt2xktgNQj0ZD69BVds+LwbmepAHKk+LD6SfKvq5WRTH4oAhk3/N3QE39XqJR4iXqQKJj/KYRkvEvkDoMm96A5WeJcik0N45CPwVlj9SPOJQD1GkBPS7WFbXgO5wis/AwlN3zYVkxC5Y96SbzSuZEfDvoCRKx4dha7nuInFyZm2uegvVbSTnmrkvi28zf74Huu889tJw9WDn/E7z91n/w7qffYt3B/BKpdvypxHOhSCAf+1csxI+HotG6Uzs0ii2OhnH2RkdRViq+fP5BjJ+93L+jQOIgkgY/hn8/cr4UuZZ5bk/Hgsnj8MLaU2XPmYL9WLM5BkMu644kq4q4NueibcZSzE894ee6QOjpOz6UWbVxDyWeOgqz05GRZ4clJhHJiTEIM+aq30OHlncIv3z1L0x54Al8sNHffPR7IU+SAAmQAAmQAAmQAAmQAAmQAAmQAAmEOIEKREZ49dBI19OoF/TkJpK+R8IOCrOgZG6CkrazYumTQhxWrVZflRoOKZ1l7JtJjQZJnaVIVvv8DEm/tFmcQ/vEQFpZOkbaL0mn1VAiburUgx4mjgWbpEjKOwJkihMk42DFZVrEWdKgq6RoknkZaURxGLqJA+NYquiWZgTVVO0IeN+rpg6vDlEC1ni06tEbPdo1Q3JcGOy5mUjbuQG/rN2ODD+BP2esl8HQkzIDO+41nKclpj5atW2Nls2bomFiHKIirVDtp3Ey6ygO7tmGDam7kFHV1Iln7AHhjUmABEiABEiABEiABEiABEiABEiABP4ogco5I/7oXXgdCZAACZAACZAACZAACZAACZAACZAACZAACZAACZAACZBArSVQXrL9WguGHScBEiABEiABEiABEiABEiABEiABEiABEiABEiABEiABEggMATojAsORUkiABEiABEiABEiABEiABEiABEiABEiABEiABEiABEiABEwI0BlhAoanSYAESIAESIAESIAESIAESIAESIAESIAESIAESIAESIAEAkOAzojAcKQUEiABEiABEiABEiABEiABEiABEiABEiABEiABEiABEiABEwJ0RpiA4WkSIAESIAESIAESIAESIAESIAESIAESIAESIAESIAESIIHAEKAzIjAcKYUESIAESIAESIAESIAESIAESIAESIAESIAESIAESIAESMCEAJ0RJmB4mgRIgARIgARIgARIgARIgARIgARIgARIgARIgARIgARIIDAE6IwIDEdKIQESIAESIAESIAESIAESIAESIAESIAESIAESIAESIAESMCHw/zCwCA/klk7RAAAAAElFTkSuQmCC;" vertex="1" parent="1">
          <mxGeometry x="-470" y="420" width="748.1" height="60" as="geometry" />
        </mxCell>
        <mxCell id="xM3Wqnif0lBBMfghwxz4-3" value="" style="rounded=1;whiteSpace=wrap;html=1;fillColor=none;strokeColor=#b85450;strokeWidth=2;" vertex="1" parent="1">
          <mxGeometry x="-320" y="440" width="120" height="20" as="geometry" />
        </mxCell>
        <mxCell id="xM3Wqnif0lBBMfghwxz4-4" value="" style="rounded=1;whiteSpace=wrap;html=1;fillColor=none;strokeColor=#d6b656;strokeWidth=2;" vertex="1" parent="1">
          <mxGeometry x="-160" y="440" width="120" height="20" as="geometry" />
        </mxCell>
        <mxCell id="xM3Wqnif0lBBMfghwxz4-5" value="" style="rounded=1;whiteSpace=wrap;html=1;fillColor=none;strokeColor=#d79b00;strokeWidth=2;" vertex="1" parent="1">
          <mxGeometry y="440" width="120" height="20" as="geometry" />
        </mxCell>
        <mxCell id="xM3Wqnif0lBBMfghwxz4-6" value="" style="rounded=1;whiteSpace=wrap;html=1;fillColor=none;strokeColor=#d79b00;strokeWidth=2;" vertex="1" parent="1">
          <mxGeometry x="158.1" y="440" width="120" height="20" as="geometry" />
        </mxCell>
        <mxCell id="xM3Wqnif0lBBMfghwxz4-7" value="" style="rounded=1;whiteSpace=wrap;html=1;fillColor=none;strokeColor=#d79b00;strokeWidth=2;" vertex="1" parent="1">
          <mxGeometry x="-320" y="460" width="120" height="17" as="geometry" />
        </mxCell>
        <mxCell id="xM3Wqnif0lBBMfghwxz4-8" value="" style="endArrow=classic;html=1;rounded=0;exitX=0;exitY=0.5;exitDx=0;exitDy=0;entryX=0.5;entryY=0;entryDx=0;entryDy=0;fillColor=#dae8fc;strokeColor=#6c8ebf;strokeWidth=2;" edge="1" parent="1" source="7DDmQKchOeRSoel_VwaO-5" target="xM3Wqnif0lBBMfghwxz4-3">
          <mxGeometry width="50" height="50" relative="1" as="geometry">
            <mxPoint x="20" y="500" as="sourcePoint" />
            <mxPoint x="70" y="450" as="targetPoint" />
            <Array as="points">
              <mxPoint x="-260" y="300" />
            </Array>
          </mxGeometry>
        </mxCell>
        <mxCell id="xM3Wqnif0lBBMfghwxz4-9" value="" style="endArrow=classic;html=1;rounded=0;exitX=0;exitY=0.5;exitDx=0;exitDy=0;entryX=0.5;entryY=0;entryDx=0;entryDy=0;fillColor=#dae8fc;strokeColor=#6c8ebf;strokeWidth=2;" edge="1" parent="1" target="xM3Wqnif0lBBMfghwxz4-4">
          <mxGeometry width="50" height="50" relative="1" as="geometry">
            <mxPoint x="320" y="337" as="sourcePoint" />
            <mxPoint x="-260" y="477" as="targetPoint" />
            <Array as="points">
              <mxPoint x="-100" y="337" />
            </Array>
          </mxGeometry>
        </mxCell>
        <mxCell id="xM3Wqnif0lBBMfghwxz4-10" value="" style="endArrow=classic;html=1;rounded=0;exitX=0;exitY=0.5;exitDx=0;exitDy=0;entryX=0.5;entryY=0;entryDx=0;entryDy=0;fillColor=#dae8fc;strokeColor=#6c8ebf;strokeWidth=2;" edge="1" parent="1" target="xM3Wqnif0lBBMfghwxz4-5">
          <mxGeometry width="50" height="50" relative="1" as="geometry">
            <mxPoint x="320" y="377" as="sourcePoint" />
            <mxPoint x="-100" y="480" as="targetPoint" />
            <Array as="points">
              <mxPoint x="60" y="377" />
            </Array>
          </mxGeometry>
        </mxCell>
        <mxCell id="xM3Wqnif0lBBMfghwxz4-11" value="" style="endArrow=classic;html=1;rounded=0;exitX=0;exitY=0.25;exitDx=0;exitDy=0;entryX=0.5;entryY=0;entryDx=0;entryDy=0;fillColor=#dae8fc;strokeColor=#6c8ebf;strokeWidth=2;" edge="1" parent="1" source="7DDmQKchOeRSoel_VwaO-2" target="xM3Wqnif0lBBMfghwxz4-6">
          <mxGeometry width="50" height="50" relative="1" as="geometry">
            <mxPoint x="320" y="414" as="sourcePoint" />
            <mxPoint x="60" y="477" as="targetPoint" />
            <Array as="points">
              <mxPoint x="218" y="410" />
            </Array>
          </mxGeometry>
        </mxCell>
        <mxCell id="xM3Wqnif0lBBMfghwxz4-12" value="" style="endArrow=classic;html=1;rounded=0;exitX=0;exitY=0.25;exitDx=0;exitDy=0;entryX=1;entryY=0.5;entryDx=0;entryDy=0;fillColor=#dae8fc;strokeColor=#6c8ebf;strokeWidth=2;" edge="1" parent="1" target="xM3Wqnif0lBBMfghwxz4-7">
          <mxGeometry width="50" height="50" relative="1" as="geometry">
            <mxPoint x="320" y="470" as="sourcePoint" />
            <mxPoint x="218" y="500" as="targetPoint" />
            <Array as="points">
              <mxPoint x="218" y="470" />
            </Array>
          </mxGeometry>
        </mxCell>
      </root>
    </mxGraphModel>
  </diagram>
</mxfile>
